<?xml version="1.0" encoding="utf-8"?>
<!-- Generator: Adobe Illustrator 27.5.0, SVG Export Plug-In . SVG Version: 6.00 Build 0)  -->
<svg version="1.1" id="game" xmlns="http://www.w3.org/2000/svg" xmlns:xlink="http://www.w3.org/1999/xlink" x="0px" y="0px"
	 viewBox="0 0 600 400" style="enable-background:new 0 0 600 400;" xml:space="preserve">
<g>
	<g>
		<rect style="fill:#FFFFFF;" width="600" height="400"/>
		<g>
			<polygon style="fill-rule:evenodd;clip-rule:evenodd;fill:#DD5E37;" points="345.517,85.829 345.517,90.329 321.017,133.829 
				318.767,134.829 296.017,136.579 295.267,139.079 300.017,148.079 296.267,157.079 280.767,167.329 275.517,167.329 
				256.517,153.579 243.017,149.079 240.517,147.079 219.017,137.579 217.142,130.079 208.867,120.969 203.457,88.299 			"/>
			<polygon style="opacity:0.7;fill-rule:evenodd;clip-rule:evenodd;fill:#DA7666;" points="296.017,136.579 295.267,139.079 
				300.017,148.079 296.267,157.079 280.767,167.329 275.517,167.329 256.517,153.579 243.017,149.079 275.687,138.829 
				279.184,138.829 292.892,131.579 297.267,129.329 313.267,133.829 321.017,133.829 318.767,134.829 			"/>
			<path style="opacity:0.4;fill-rule:evenodd;clip-rule:evenodd;fill:#FFD8B3;" d="M292.017,128.329c-0.5-0.75-9-0.667-10.667,0
				c-1.667,0.667-5,8.083-5,8.833s3.314,0.204,7.167-1.833c3.853-2.037,7.583-3.667,8.5-4.5
				C292.934,129.995,292.017,128.329,292.017,128.329z"/>
			<path style="fill-rule:evenodd;clip-rule:evenodd;fill:#F2B055;" d="M283.267,125.149c0.25,0.833,9.438,2.992,10.188,2.648
				s3.75-1.052,4.563-2.135c0.813-1.083,9.333-26.917,9.667-29c0.333-2.083-25.75-5.833-28-5.417s-3.5,4-3.333,5.417
				C276.517,98.079,283.267,125.149,283.267,125.149z"/>
			<path style="fill-rule:evenodd;clip-rule:evenodd;fill:#F2B055;" d="M280.83,126.579c-0.36,1.066-5.81,10.823-6.342,11.286
				c-0.533,0.464-29.47,10.964-31.47,11.214l-2.5-2c0,0,0.875-49.44,2.5-51.44s29.375-5.683,30.5-5.059
				S282.113,122.781,280.83,126.579z"/>
			<path style="fill-rule:evenodd;clip-rule:evenodd;fill:#F2B055;" d="M208.867,120.969c0,0,17.65,5.86,21.067,5.61
				c3.417-0.25,8.183-2.509,9.5-6.167c1.317-3.657,1.912-24.083,1.081-25.333c-0.831-1.25-30.539-3.667-35.935,0L208.867,120.969z"
				/>
			<path style="opacity:0.7;fill-rule:evenodd;clip-rule:evenodd;fill:#DA7666;" d="M217.142,130.079l-0.875-3.5l13.375,1.265
				l5.625,1.485l-5.796-2.75c0,0-11.567-2.595-20.605-5.61L217.142,130.079z"/>
			<path style="opacity:0.7;fill-rule:evenodd;clip-rule:evenodd;fill:#DA7666;" d="M204.314,93.474l0.266,1.604
				c0,0,16.35-4.083,35.935,0l1.652,6.255c0,0,0.184-4.553,0.85-5.696c0.667-1.143,28.833-5.891,30.5-5.059
				c1.667,0.833,5,17.416,5,17.416l0.168-1.397l-2.335-9.937c0,0,0.167-4.75,3.333-5.417c3.167-0.667,26.522,2.482,27.636,6.825
				l-2.039,6.573c0,0,11.997-12.146,32.867-1.23l7.369-13.084v-4.5l-141.625,3.5L204.314,93.474z"/>
			<path style="opacity:0.7;fill-rule:evenodd;clip-rule:evenodd;fill:#DA7666;" d="M313.267,133.829h7.75l-2.25,1l-22.75,1.75
				l-0.75,2.5l4.75,9l-3.75,9l-15.5,10.25l1.25-0.827c0,0,10.806-7.146,10.407-12.048c-0.399-4.902-4.157-11.375-4.157-11.375h-3.88
				l-3.41-2.625l-6.49-1.248l4.696-0.377l13.709-7.25l-0.875-3.25c0,0,4.917-1.833,6-2.667c1.083-0.833,6.958-20.067,6.958-20.067
				l-5.277,21.78l1.069,1.954L313.267,133.829z"/>
			<path style="opacity:0.7;fill-rule:evenodd;clip-rule:evenodd;fill:#DA7666;" d="M256.517,153.579c0,0,9.636-1.818,26.833-9.583
				c0,0-20.066,8.392-23.741,11.821L256.517,153.579z"/>
			<polygon style="opacity:0.7;fill-rule:evenodd;clip-rule:evenodd;fill:#DA7666;" points="241.197,120.969 278.517,107.995 
				279.528,114.482 240.517,132.64 			"/>
			<polygon style="fill-rule:evenodd;clip-rule:evenodd;fill:#FFEEA3;" points="241.367,116.328 277.677,105.595 277.677,104.052 
				241.367,113.079 			"/>
			<polygon style="fill-rule:evenodd;clip-rule:evenodd;fill:#FFEEA3;" points="206.465,106.463 240.821,105.595 240.391,113.733 
				207.506,112.747 			"/>
			<polygon style="opacity:0.7;fill-rule:evenodd;clip-rule:evenodd;fill:#DA7666;" points="281.492,118.002 300.405,119.794 
				298.684,123.995 282.235,120.999 			"/>
			<g>
				<linearGradient id="SVGID_1_" gradientUnits="userSpaceOnUse" x1="275" y1="81.6832" x2="275" y2="99.4758">
					<stop  offset="0.1899" style="stop-color:#F5D46F"/>
					<stop  offset="1" style="stop-color:#FC8332"/>
				</linearGradient>
				<path style="fill-rule:evenodd;clip-rule:evenodd;fill:url(#SVGID_1_);" d="M203.457,85.829c0,0-8.565-6.625-11.815-3.125
					c-0.34,0.367,9.75,5.25,9.75,5.25s-8,8.875-8,10.125s14.625-7.75,21.75-7.688c0,0,1.625,2.313,13.375,2.938
					s12.625-3.125,38-4.375s41.625,7.5,44.625,7.125s-3.625-5.628-3.625-5.628s6.5,1.878,15.75,1.003s8-4.25,8-4.25l12.625,0.5
					c0,0,9.75,11.125,10.875,11.75s2.25-12.25-7.25-14.875c0,0,9.875,2.375,10.75,2s-4.125-5.792-12.75-3.5L203.457,85.829z"/>
				<path style="opacity:0.8;fill-rule:evenodd;clip-rule:evenodd;fill:#FFFF70;" d="M203.457,85.829L203.457,85.829
					c0,0,20.186,3.014,66.684,3.014c44.798,0,75.376-5.764,75.376-5.764L203.457,85.829z"/>
			</g>
			<g>
				<path style="fill-rule:evenodd;clip-rule:evenodd;fill:#B84318;" d="M257.017,136.462h-2.458c0,0-12.343-2.944-13.192-3.383
					c-0.85-0.439-7.662-11.25-7.662-11.25l6-13.833l3.313-0.792l18.225,6.797l0.775,3.391
					C262.017,117.391,259.58,130.845,257.017,136.462z"/>
				<polygon style="opacity:0.9;fill-rule:evenodd;clip-rule:evenodd;fill:#FFFFFF;" points="233.705,121.829 238.142,123.995 
					246.642,123.995 261.243,114.001 243.017,107.204 239.705,107.995 				"/>
				<path style="opacity:0.7;fill-rule:evenodd;clip-rule:evenodd;fill:#DA7666;" d="M241.367,133.079l10.9,1.25l-5.625-10.333
					l14.6-9.995l0.775,3.391c0,0-2.417,13.662-5,19.071h-2.458L241.367,133.079z"/>
				<polygon style="fill-rule:evenodd;clip-rule:evenodd;fill:#FFF6CF;" points="243.851,123.995 248.675,122.604 247.315,125.231 
									"/>
				<polygon style="opacity:0.7;fill-rule:evenodd;clip-rule:evenodd;fill:#DA7666;" points="241.367,133.079 255.017,137.483 
					262.017,137.483 267.434,130.079 262.017,117.391 261.243,114.001 248.675,122.604 247.315,125.231 254.559,136.462 				"/>
			</g>
			<g>
				
					<radialGradient id="SVGID_00000176006742174250322170000007445586580365219725_" cx="289.9791" cy="104.7097" r="4.3843" gradientUnits="userSpaceOnUse">
					<stop  offset="0" style="stop-color:#B5888D"/>
					<stop  offset="1" style="stop-color:#906354"/>
				</radialGradient>
				<path style="fill-rule:evenodd;clip-rule:evenodd;fill:url(#SVGID_00000176006742174250322170000007445586580365219725_);" d="
					M287.75,106.06l0.565,1.693l4.799,3.131l1.525-0.815l1.669-4.009c0,0-3.363-3.782-5.17-4.15
					C291.138,101.91,289.048,102.898,287.75,106.06z"/>
				<polygon style="opacity:0.7;fill-rule:evenodd;clip-rule:evenodd;fill:#DA7666;" points="296.308,106.06 292.029,106.06 
					292.029,109.266 288.314,107.753 293.114,110.885 294.638,110.069 				"/>
				<path style="opacity:0.9;fill-rule:evenodd;clip-rule:evenodd;fill:#FFFFFF;" d="M287.75,106.06h2.88h5.678
					c0,0-2.006-2.759-5.17-4.15C291.138,101.91,289.387,102.729,287.75,106.06z"/>
				<polygon style="opacity:0.7;fill-rule:evenodd;clip-rule:evenodd;fill:#DA7666;" points="296.308,106.06 297.33,108.473 
					296.615,111.973 294.77,112.497 288.314,107.753 292.029,110.177 292.029,109.266 292.029,106.06 293.889,106.06 				"/>
			</g>
			<g>
				<path style="fill-rule:evenodd;clip-rule:evenodd;fill:#B84318;" d="M323.171,130.005c0,0-5.341-4.051-5.404-5.489
					s0.313-7.938,0.938-9.063s13.66-3.972,14.643-3.517c0.982,0.455,2.795,9.025,2.607,9.896
					C335.767,122.704,323.171,130.005,323.171,130.005z"/>
				<polygon style="opacity:0.7;fill-rule:evenodd;clip-rule:evenodd;fill:#DA7666;" points="318.705,115.454 330.767,118.662 
					335.955,121.833 323.171,130.005 321.017,133.829 314.939,125.524 				"/>
			</g>
		</g>
		<g>
			<polygon style="fill-rule:evenodd;clip-rule:evenodd;fill:#DD5E37;" points="44.019,83.072 51.936,114.007 54.103,116.186 
				64.603,122.041 68.436,130.552 88.436,135.717 98.936,132.103 105.603,130.552 119.436,83.072 			"/>
			<polygon style="opacity:0.7;fill-rule:evenodd;clip-rule:evenodd;fill:#DA7666;" points="51.936,114.007 56.103,116.116 
				75.769,116.741 79.103,118.036 88.269,124.781 105.603,130.552 98.936,132.103 88.436,135.717 68.436,130.552 64.603,122.041 
				54.103,116.186 			"/>
			<path style="fill-rule:evenodd;clip-rule:evenodd;fill:#F2B055;" d="M54.089,115.097c0.965,1.087,20.097,0.274,21.263,0
				c1.167-0.274,1.75-24.349,0-27.895c-1.75-3.546-29.051-3.281-29.917-2.629C44.57,85.224,52.188,112.954,54.089,115.097z"/>
			<path style="fill-rule:evenodd;clip-rule:evenodd;fill:#F2B055;" d="M75.353,84.176c-0.851,0.833,1.5,5.813,2.5,6.479
				c1,0.667,9.25-5.376,9.25-6.479S76.353,83.197,75.353,84.176z"/>
			<path style="fill-rule:evenodd;clip-rule:evenodd;fill:#F2B055;" d="M77.832,116.072c-1.237-1.295-0.668-21.128,0.938-23.746
				c1.605-2.618,11.5-7.732,15.375-7.056c3.875,0.676,11.792,17.447,11.458,24.124c-0.333,6.678-11.939,14.553-14.136,14.428
				C89.269,123.697,79.144,117.447,77.832,116.072z"/>
			<polygon style="fill-rule:evenodd;clip-rule:evenodd;fill:#FFEEA3;" points="48.706,99.207 76.456,99.912 76.457,102.239 
				49.274,101.214 			"/>
			<polygon style="fill-rule:evenodd;clip-rule:evenodd;fill:#FFEEA3;" points="47.884,96.201 76.337,94.578 75.991,90.065 
				46.482,90.707 			"/>
			<polygon style="opacity:0.7;fill-rule:evenodd;clip-rule:evenodd;fill:#DA7666;" points="77.495,99.912 103.777,100.707 
				105.213,105.684 77.192,106.257 			"/>
			<polygon style="opacity:0.7;fill-rule:evenodd;clip-rule:evenodd;fill:#DA7666;" points="64.603,122.041 73.269,119.181 
				80.186,119.181 87.103,124.862 81.728,129.572 68.436,130.552 88.436,135.717 98.936,132.103 105.603,130.552 88.269,124.781 
				79.103,118.036 75.769,116.741 54.103,116.186 			"/>
			<path style="opacity:0.7;fill-rule:evenodd;clip-rule:evenodd;fill:#DA7666;" d="M47.702,97.464c0,0,7.187-9.308,13.21-9.891
				c6.024-0.583,15.079,2.493,15.079,2.493l2.454,3.068c0,0,21.169-5.439,38.059,0l2.61-8.957l-73.678,0.396L47.702,97.464z"/>
			
				<linearGradient id="SVGID_00000119075341330324597660000009942636990753644939_" gradientUnits="userSpaceOnUse" x1="77.3943" y1="77.0454" x2="77.3943" y2="96.4539">
				<stop  offset="0.1899" style="stop-color:#F5D46F"/>
				<stop  offset="1" style="stop-color:#FC8332"/>
			</linearGradient>
			<path style="fill-rule:evenodd;clip-rule:evenodd;fill:url(#SVGID_00000119075341330324597660000009942636990753644939_);" d="
				M46.482,83.072c0,0-10.963-3.042-18.213,1.104l13.375,1.034c0,0-3.625,9.246-2.5,10.992c1.125,1.746,12.792-6.136,12.792-6.136
				l-1.292,3.914c0,0,3.625-6.51,9-8.708c5.375-2.199,43.687,4.912,45.969,4.794c2.281-0.118,2.531-3.993,2.531-3.993
				s13.25,3.61,16.375,3.993c0,0-0.75-6.978-5.583-8.069l7.583-4.924c0,0-5.125-0.746-12.25,5.625L46.482,83.072z"/>
			<path style="opacity:0.8;fill-rule:evenodd;clip-rule:evenodd;fill:#FFFF70;" d="M46.482,83.072c0,0,45.787,3.75,67.787-0.375
				L46.482,83.072z"/>
			<polygon style="fill-rule:evenodd;clip-rule:evenodd;fill:#B84318;" points="115.762,95.681 119.462,109.163 119.114,115.647 
				107.563,123.824 			"/>
			<polygon style="fill-rule:evenodd;clip-rule:evenodd;fill:#B84318;" points="76.457,102.239 74.019,104.517 75.238,109.395 
				77.192,111.051 80.376,107.885 79.853,103.084 			"/>
			<polygon style="opacity:0.7;fill-rule:evenodd;clip-rule:evenodd;fill:#DA7666;" points="74.019,104.517 75.582,106.257 
				79.394,105.387 79.853,103.084 81.728,106.645 81.728,111.051 78.769,112.197 77.192,111.051 75.238,109.395 			"/>
			<polygon style="fill-rule:evenodd;clip-rule:evenodd;fill:#FFF6CF;" points="74.019,104.517 75.582,106.257 79.13,105.447 
				79.853,103.084 76.457,102.239 			"/>
			<polygon style="opacity:0.7;fill-rule:evenodd;clip-rule:evenodd;fill:#DA7666;" points="119.114,115.647 113.512,109.163 
				115.762,95.681 107.563,123.824 			"/>
		</g>
		<g>
			<g>
				<g>
					<polygon style="fill-rule:evenodd;clip-rule:evenodd;fill:#DD5E37;" points="31.632,352.642 31.632,297.539 37.678,291.56 
						45.509,257.48 550.465,250.673 556.657,352.642 					"/>
					<g>
						
							<linearGradient id="SVGID_00000168811886278885248920000017890183148052542094_" gradientUnits="userSpaceOnUse" x1="37.6778" y1="286.6561" x2="91.0422" y2="286.6561">
							<stop  offset="0" style="stop-color:#F5C057"/>
							<stop  offset="1" style="stop-color:#FC7D2F"/>
						</linearGradient>
						
							<path style="fill-rule:evenodd;clip-rule:evenodd;fill:url(#SVGID_00000168811886278885248920000017890183148052542094_);" d="
							M37.678,291.56c0,0,20.419,20.479,24.797,20.753c4.378,0.274,20.25-11.678,25.449-20.753
							c5.199-9.075,2.326-27.447,2.326-27.447s-33.248-4.888-39.542-2.425C44.414,264.151,37.678,291.56,37.678,291.56z"/>
						<path style="fill-rule:evenodd;clip-rule:evenodd;fill:#F2B055;" d="M31.632,297.539c0,2.187,0.879,51.853,1.974,52.811
							c1.095,0.958,12.861,1.095,19.566-2.189c6.704-3.284,10.885-13.682,11.189-15.735c0.304-2.052-4.211-18.198-11.736-24.902
							C45.098,300.82,31.632,297.539,31.632,297.539z"/>
						<path style="fill-rule:evenodd;clip-rule:evenodd;fill:#F2B055;" d="M65.006,313.715c0.332-1.995,11.288-7.799,12.827-7.901
							c1.539-0.103,2.155,6.978,0,10.569C75.678,319.975,64.649,315.863,65.006,313.715z"/>
						<path style="fill-rule:evenodd;clip-rule:evenodd;fill:#F2B055;" d="M81.425,303.146c-1.833,0.108,3.797,18.366,6.67,32.973
							c2.873,14.607,27.604,16.524,27.604,16.524h33.043C148.742,352.642,91.892,302.53,81.425,303.146z"/>
						<path style="fill-rule:evenodd;clip-rule:evenodd;fill:#F2B055;" d="M76.807,320.18c-1.432-1.91-9.543,1.334-10.57,2.873
							c-1.026,1.539-2.463,29.589-2.463,29.589h30.58C94.355,352.642,78.346,322.233,76.807,320.18z"/>
						<path style="fill-rule:evenodd;clip-rule:evenodd;fill:#F2B055;" d="M83.991,301.008c-0.65-2.202,3.694-7.509,5.336-7.919
							s5.131,9.543,4.207,11.083C92.61,305.711,84.904,304.102,83.991,301.008z"/>
						<path style="fill-rule:evenodd;clip-rule:evenodd;fill:#FFD8B3;" d="M91.042,291.591c-1.859-0.317,2.08-4.72,2.645-4.926
							c0.565-0.205,1.899,2.873,1.386,4.105C94.56,292.002,92.245,291.797,91.042,291.591z"/>
						<path style="fill-rule:evenodd;clip-rule:evenodd;fill:#F2B055;" d="M95.993,309.258c-1.654-3.694-2.27-13.853-0.833-15.906
							c1.437-2.052,12.93-8.723,19.497-8.209c6.567,0.513,17.958,16.829,16.213,25.757c-1.744,8.928-11.39,10.939-16.111,10.087
							C110.039,320.135,95.993,309.258,95.993,309.258z"/>
						<path style="fill-rule:evenodd;clip-rule:evenodd;fill:#F0974F;" d="M151.684,352.642c0,0-32.032-24.984-31.743-28.401
							c0.289-3.417,29.622-19.659,43.168-14.939c13.545,4.72,14.366,32.427,11.904,36.737
							C172.549,350.35,151.684,352.642,151.684,352.642z"/>
						<path style="fill-rule:evenodd;clip-rule:evenodd;fill:#F2B055;" d="M132.665,313.493c-1.769-0.365-0.479-9.304,0.753-9.988
							c1.231-0.684,8.346,1.231,9.92,2.942C144.911,308.157,135.607,314.1,132.665,313.493z"/>
						<path style="fill-rule:evenodd;clip-rule:evenodd;fill:#F2B055;" d="M92.868,262.236c0,0-1.087,18.198,2.321,21.481
							c3.408,3.284,28.442-1.095,42.468-3.694c14.027-2.6,23.331-17.787,23.331-17.787H92.868z"/>
						
							<linearGradient id="SVGID_00000099624464177053424730000001792208939292988553_" gradientUnits="userSpaceOnUse" x1="122.0179" y1="285.3663" x2="178.7561" y2="285.3663">
							<stop  offset="0" style="stop-color:#F5C057"/>
							<stop  offset="1" style="stop-color:#FC7D2F"/>
						</linearGradient>
						
							<path style="fill-rule:evenodd;clip-rule:evenodd;fill:url(#SVGID_00000099624464177053424730000001792208939292988553_);" d="
							M122.404,285.115c-2.374,1.073,6.886,14.44,9.395,15.893c2.509,1.453,15.507,5.832,23.443,6.242
							c7.936,0.41,19.148-6.401,20.862-11.068c1.714-4.667,4.585-28.288,0.755-31.049c-3.83-2.761-12.313-1.617-14.366,0
							c-2.052,1.617-13.24,11.468-16.692,12.837C142.348,279.339,124.456,284.187,122.404,285.115z"/>
						<path style="fill-rule:evenodd;clip-rule:evenodd;fill:#F2B055;" d="M166.052,307.486c-0.707,0.876,5.048,6.58,6.269,6.662
							c1.221,0.081,3.419-3.88,3.745-6.662c0.326-2.782-1.547-4.626-2.117-4.966C173.379,302.18,167.354,305.872,166.052,307.486z"
							/>
						<path style="fill-rule:evenodd;clip-rule:evenodd;fill:#F2B055;" d="M176.816,352.642c0,0,1.137-29.217,2.779-34.842
							c1.642-5.625,14.708-14.704,20.866-13.038c6.157,1.666,27.501,22.05,29.964,31.355c2.463,9.305,0,16.524,0,16.524H176.816z"/>
						<path style="fill-rule:evenodd;clip-rule:evenodd;fill:#FFD8B3;" d="M173.195,315.597c-0.447,1.08,1.83,11.083,2.762,11.288
							c0.932,0.205,3.532-12.125,3.053-13.348C178.531,312.313,174.016,313.613,173.195,315.597z"/>
						<path style="fill-rule:evenodd;clip-rule:evenodd;fill:#F2B055;" d="M180.553,312.039c-1.859-1.734-5.343-10.604-4.45-13.135
							c0.893-2.531,6.229-19.155,9.513-21.208c3.284-2.052,18.771,3.267,20.96,10.698
							C208.765,295.826,181.677,313.087,180.553,312.039z"/>
						<path style="fill-rule:evenodd;clip-rule:evenodd;fill:#F0974F;" d="M204.168,301.008
							c-0.734-5.455,12.233-20.986,27.352-22.08c15.119-1.095,33.579,16.766,36.663,23.57c3.084,6.805-21.757,33.622-27.397,30.612
							C235.146,330.1,204.168,301.008,204.168,301.008z"/>
						<path style="fill-rule:evenodd;clip-rule:evenodd;fill:#F2B055;" d="M234.176,352.642c0,0-1.45-12.489,1.791-16.524
							c3.24-4.035,30.303,16.524,30.303,16.524H234.176z"/>
						<path style="fill-rule:evenodd;clip-rule:evenodd;fill:#F2B055;" d="M233.853,334.239c-1.888-0.718-5.787-5.878-5.685-7.352
							c0.103-1.473,9.338,5.564,9.441,6.458C237.711,334.239,233.853,334.239,233.853,334.239z"/>
						<path style="fill-rule:evenodd;clip-rule:evenodd;fill:#F2B055;" d="M176.816,260.995c0,0,4.763,10.75,6.61,12.392
							c1.847,1.642,26.587,10.773,29.143,11.504c2.556,0.731,31.439-30.598,31.439-30.598L176.816,260.995z"/>
						<path style="fill-rule:evenodd;clip-rule:evenodd;fill:#F2B055;" d="M232.658,273.387c0.218,3.494,26.91,14.39,39.84,15.815
							c12.93,1.425,46.178-28.207,46.178-28.207l-68.105-6.702C250.571,254.293,232.223,266.409,232.658,273.387z"/>
						
							<linearGradient id="SVGID_00000151515378016187228920000004767145351283418763_" gradientUnits="userSpaceOnUse" x1="494.7942" y1="286.6561" x2="548.1587" y2="286.6561">
							<stop  offset="0" style="stop-color:#F5C057"/>
							<stop  offset="1" style="stop-color:#FC7D2F"/>
						</linearGradient>
						
							<path style="fill-rule:evenodd;clip-rule:evenodd;fill:url(#SVGID_00000151515378016187228920000004767145351283418763_);" d="
							M548.159,291.56c0,0-20.419,20.479-24.797,20.753c-4.378,0.274-20.25-11.678-25.449-20.753s-2.326-27.447-2.326-27.447
							s33.248-4.888,39.542-2.425S548.159,291.56,548.159,291.56z"/>
						<path style="fill-rule:evenodd;clip-rule:evenodd;fill:#F2B055;" d="M553.136,294.669c0,2.187,4.548,55.919,3.453,56.876
							c-1.095,0.958-17.22-0.101-23.924-3.385c-6.704-3.284-10.885-13.682-11.189-15.735c-0.304-2.052,4.211-18.198,11.736-24.902
							C540.738,300.82,553.136,294.669,553.136,294.669z"/>
						<path style="fill-rule:evenodd;clip-rule:evenodd;fill:#F2B055;" d="M520.83,313.715c-0.332-1.995-11.288-7.799-12.827-7.901
							c-1.539-0.103-2.155,6.978,0,10.569C510.158,319.975,521.188,315.863,520.83,313.715z"/>
						<path style="fill-rule:evenodd;clip-rule:evenodd;fill:#F0974F;" d="M504.411,303.146c1.833,0.108-3.797,18.366-6.67,32.973
							c-2.873,14.607-27.604,16.524-27.604,16.524h-33.043C437.094,352.642,493.944,302.53,504.411,303.146z"/>
						<path style="fill-rule:evenodd;clip-rule:evenodd;fill:#F2B055;" d="M509.029,320.18c1.432-1.91,9.543,1.334,10.57,2.873
							c1.026,1.539,2.463,29.589,2.463,29.589h-30.58C491.482,352.642,507.49,322.233,509.029,320.18z"/>
						<path style="fill-rule:evenodd;clip-rule:evenodd;fill:#F2B055;" d="M501.846,301.008c0.65-2.202-3.694-7.509-5.336-7.919
							c-1.642-0.41-5.131,9.543-4.207,11.083C493.226,305.711,500.933,304.102,501.846,301.008z"/>
						<path style="fill-rule:evenodd;clip-rule:evenodd;fill:#FFD8B3;" d="M494.794,291.591c1.859-0.317-2.079-4.72-2.645-4.926
							c-0.565-0.205-1.899,2.873-1.386,4.105C491.276,292.002,493.592,291.797,494.794,291.591z"/>
						<path style="fill-rule:evenodd;clip-rule:evenodd;fill:#F2B055;" d="M489.843,309.258c1.655-3.694,2.27-13.853,0.834-15.906
							c-1.437-2.052-12.93-8.723-19.497-8.209c-6.568,0.513-17.958,16.829-16.214,25.757s11.391,10.939,16.111,10.087
							S489.843,309.258,489.843,309.258z"/>
						<path style="fill-rule:evenodd;clip-rule:evenodd;fill:#F2B055;" d="M434.153,352.642c0,0,32.032-24.984,31.743-28.401
							c-0.289-3.417-29.622-19.659-43.168-14.939s-14.366,32.427-11.904,36.737C413.287,350.35,434.153,352.642,434.153,352.642z"/>
						<path style="fill-rule:evenodd;clip-rule:evenodd;fill:#F2B055;" d="M453.171,313.493c1.769-0.365,0.479-9.304-0.753-9.988
							c-1.231-0.684-8.346,1.231-9.92,2.942C440.925,308.157,450.229,314.1,453.171,313.493z"/>
						<path style="fill-rule:evenodd;clip-rule:evenodd;fill:#F2B055;" d="M492.968,262.236c0,0,1.088,18.198-2.32,21.481
							c-3.408,3.284-28.442-1.095-42.469-3.694c-14.027-2.6-23.331-17.787-23.331-17.787H492.968z"/>
						<path style="fill-rule:evenodd;clip-rule:evenodd;fill:#F0974F;" d="M463.433,285.115c2.374,1.073-6.886,14.44-9.395,15.893
							c-2.509,1.453-15.507,5.832-23.443,6.242c-7.936,0.41-19.148-6.401-20.862-11.068s-4.585-28.288-0.755-31.049
							c3.83-2.761,12.313-1.617,14.366,0c2.052,1.617,13.241,11.468,16.692,12.837C443.488,279.339,461.38,284.187,463.433,285.115z
							"/>
						<path style="fill-rule:evenodd;clip-rule:evenodd;fill:#F2B055;" d="M419.785,307.486c0.707,0.876-5.048,6.58-6.269,6.662
							c-1.221,0.081-3.419-3.88-3.745-6.662c-0.326-2.782,1.547-4.626,2.117-4.966C412.458,302.18,418.482,305.872,419.785,307.486z
							"/>
						<path style="fill-rule:evenodd;clip-rule:evenodd;fill:#F2B055;" d="M409.02,352.642c0,0-1.137-29.217-2.779-34.842
							c-1.642-5.625-14.708-14.704-20.865-13.038c-6.157,1.666-27.502,22.05-29.964,31.355c-2.463,9.305,0,16.524,0,16.524H409.02z"
							/>
						<path style="fill-rule:evenodd;clip-rule:evenodd;fill:#FFD8B3;" d="M412.641,315.597c0.447,1.08-1.83,11.083-2.762,11.288
							s-3.532-12.125-3.053-13.348C407.305,312.313,411.82,313.613,412.641,315.597z"/>
						<path style="fill-rule:evenodd;clip-rule:evenodd;fill:#F2B055;" d="M405.283,312.039c1.859-1.734,5.343-10.604,4.45-13.135
							c-0.893-2.531-6.229-19.155-9.513-21.208c-3.284-2.052-18.771,3.267-20.96,10.698
							C377.071,295.826,404.16,313.087,405.283,312.039z"/>
						<path style="fill-rule:evenodd;clip-rule:evenodd;fill:#F0974F;" d="M381.668,301.008c0.734-5.455-12.233-20.986-27.352-22.08
							c-15.119-1.095-33.579,16.766-36.663,23.57c-3.084,6.805,21.757,33.622,27.397,30.612
							C350.691,330.1,381.668,301.008,381.668,301.008z"/>
						<path style="fill-rule:evenodd;clip-rule:evenodd;fill:#F2B055;" d="M351.66,352.642c0,0,1.45-12.489-1.791-16.524
							c-3.241-4.035-30.303,16.524-30.303,16.524H351.66z"/>
						<path style="fill-rule:evenodd;clip-rule:evenodd;fill:#FFD8B3;" d="M351.984,334.239c1.888-0.718,5.787-5.878,5.685-7.352
							c-0.103-1.473-9.338,5.564-9.441,6.458C348.125,334.239,351.984,334.239,351.984,334.239z"/>
						<path style="fill-rule:evenodd;clip-rule:evenodd;fill:#F2B055;" d="M409.02,260.995c0,0-4.763,10.75-6.61,12.392
							c-1.847,1.642-26.587,10.773-29.143,11.504c-2.556,0.731-31.439-30.598-31.439-30.598L409.02,260.995z"/>
						<path style="fill-rule:evenodd;clip-rule:evenodd;fill:#F2B055;" d="M337.011,336.576
							c1.006,4.808-14.844,11.472-17.992,11.061c-3.147-0.41-10.741-13.735-11.152-18.053c-0.41-4.318,6.046-15.346,8.975-16.285
							C319.771,312.361,336.127,332.354,337.011,336.576z"/>
						<path style="fill-rule:evenodd;clip-rule:evenodd;fill:#F2B055;" d="M317.389,352.642c0,0-2.886-10.092-7.949-14.333
							c-5.063-4.242-25.86,5.577-27.638,7.167c-1.779,1.59,0,7.167,0,7.167H317.389z"/>
						<path style="fill-rule:evenodd;clip-rule:evenodd;fill:#FFD8B3;" d="M299.795,335.162c0,1.169,5.746,1.479,7.183,0.432
							c1.437-1.047,0.889-5.768,0-6.452C306.089,328.458,299.795,333.589,299.795,335.162z"/>
						<path style="fill-rule:evenodd;clip-rule:evenodd;fill:#F2B055;" d="M268.447,295.593c-1.743,2.877,1.247,11.841,2.888,13.23
							c1.642,1.389,16.693-3.557,20.797-11.151c4.105-7.594,4.789-12.124,3.763-12.739
							C294.869,284.318,271.547,290.477,268.447,295.593z"/>
						<path style="fill-rule:evenodd;clip-rule:evenodd;fill:#F2B055;" d="M247.384,335.594
							c-0.629-2.406,17.627-19.518,21.063-19.724c3.436-0.205,18.213,17.935,18.418,21.384c0.205,3.449-9.851,10.17-16.008,10.401
							C264.7,347.887,248.432,339.601,247.384,335.594z"/>
						<path style="fill-rule:evenodd;clip-rule:evenodd;fill:#F2B055;" d="M267.118,352.642c0,0-0.982-2.601,5.688-3.729
							c6.67-1.129,8.206,3.729,8.206,3.729H267.118z"/>
						<path style="fill-rule:evenodd;clip-rule:evenodd;fill:#F2B055;" d="M286.868,340.704c-1.004-0.225,1.639-5.825,4.102-7.359
							c2.463-1.535,9.04,2.572,8.825,3.68C299.579,338.131,288.461,341.061,286.868,340.704z"/>
						<path style="fill-rule:evenodd;clip-rule:evenodd;fill:#F2B055;" d="M272.088,313.268
							c-0.797,1.109,13.433,20.122,15.256,20.971c1.823,0.849,13.409-7.118,16.829-10.486s-1.941-25.602-4.972-26.97
							C296.169,295.415,273.319,311.555,272.088,313.268z"/>
						<path style="fill-rule:evenodd;clip-rule:evenodd;fill:#F2B055;" d="M307.862,316.589c-0.984,0.126-8.775-31.298-8.062-35.3
							c0.713-4.002,14.347-14.887,16.311-15.393s29.964,4.365,30.888,5.876c0.924,1.512-30.477,25.531-31.811,27.543
							c-1.334,2.012,2.052,9.065,1.231,10.398C315.598,311.047,309.464,316.383,307.862,316.589z"/>
					</g>
					<path style="opacity:0.7;fill-rule:evenodd;clip-rule:evenodd;fill:#DA7666;" d="M40.965,277.253l31.148-11.394l81.02,5.697
						v1.328l9.359-7.75l25.674,10.542c0,0,84.451-11.573,120.19-6.077l0.394,1.595l1.942-1.595l241.162,3.965l-1.547-16.083
						l-504.339,4.756L40.965,277.253z"/>
					
						<linearGradient id="SVGID_00000034806150457471128030000017069194577229712550_" gradientUnits="userSpaceOnUse" x1="300" y1="242.9638" x2="300" y2="273.3867">
						<stop  offset="0.1899" style="stop-color:#F5D46F"/>
						<stop  offset="1" style="stop-color:#FC8332"/>
					</linearGradient>
					<path style="fill-rule:evenodd;clip-rule:evenodd;fill:url(#SVGID_00000034806150457471128030000017069194577229712550_);" d="
						M39.352,260.046c0,0-5.336,0.205-11.083,4.105l9.408-1.428c0,0-4.451,3.891-2.225,10.664c0,0,17.25-8.181,31.606-9.646
						c14.356-1.465,28.733,1.437,55.208,2.976c26.475,1.539,38.995-2.771,38.995-2.771l11.904,2.771c0,0-1.505-4.074-4.72-4.686
						c0,0,13.614,4.72,19.224,7.867c5.61,3.147,24.276-8.527,33.711-9.621c0,0-9.014,4.491-10.579,11.496
						c0,0,27.869-10.357,32.247-10.631c4.378-0.274,63.248,1.847,83.086,5.575c19.839,3.729,119.172-6.67,119.172-6.67
						s9.372-0.41,21.208,7.799c0,0-0.479-4.83-4.584-7.802c0,0,4.823,0.209,8.107,3.082c0,0,4.72,0.096,9.543-3.082
						c0,0,58.334-3.283,70.727-2.563l9.93,7.902c0,0-0.616-14.366-9.851-16.008l21.344-2.463c0,0-13.546-10.672-27.912,3.078
						l-498.857,5.404c0,0-6.02-6.02-16.692-6.294L39.352,260.046z"/>
					<path style="opacity:0.8;fill-rule:evenodd;clip-rule:evenodd;fill:#FFFF70;" d="M44.962,255.394
						c0,0,146.191,4.003,281.172,2.781c134.981-1.222,217.685-8.185,217.685-8.185L44.962,255.394z"/>
					<polygon style="fill-rule:evenodd;clip-rule:evenodd;fill:#FFEEA3;" points="320.91,312.318 376.188,306.112 371.351,310.572 
						326.741,319.974 					"/>
					<polygon style="opacity:0.7;fill-rule:evenodd;clip-rule:evenodd;fill:#DA7666;" points="317.783,306.112 379.149,303.362 
						377.859,304.562 318.676,308.324 					"/>
					<path style="fill-rule:evenodd;clip-rule:evenodd;fill:#FFEEA3;" d="M355.411,336.119l52.83,1.136l-0.61-8.652l-45.513-3.429
						C362.118,325.174,356.23,331.954,355.411,336.119z"/>
					<polygon style="opacity:0.7;fill-rule:evenodd;clip-rule:evenodd;fill:#DA7666;" points="412.121,350.161 446.731,350.161 
						442.321,346.14 410.824,346.04 					"/>
					<polygon style="fill-rule:evenodd;clip-rule:evenodd;fill:#FFEEA3;" points="207.923,304.763 264.114,313.536 256.073,323.276 
						215.833,311.807 					"/>
					<polygon style="fill-rule:evenodd;clip-rule:evenodd;fill:#FFEEA3;" points="177.21,344.118 228.166,331.3 225.841,327.891 
						177.897,332.656 					"/>
					<polygon style="fill-rule:evenodd;clip-rule:evenodd;fill:#FFEEA3;" points="178.205,328.602 221.722,322.819 220.13,321.04 
						178.205,326.887 					"/>
					<polygon style="opacity:0.7;fill-rule:evenodd;clip-rule:evenodd;fill:#DA7666;" points="126.54,331.765 176.103,334.239 
						176.103,339.541 133.429,337.805 					"/>
					<polygon style="fill-rule:evenodd;clip-rule:evenodd;fill:#FFEEA3;" points="87.186,331.765 123.382,331.201 108.718,319.595 
						84.697,321.165 					"/>
					<polygon style="fill-rule:evenodd;clip-rule:evenodd;fill:#FFEEA3;" points="87.924,291.56 40.965,280.143 38.99,285.851 
						78.391,302.498 					"/>
					<polygon style="opacity:0.7;fill-rule:evenodd;clip-rule:evenodd;fill:#DA7666;" points="407.716,284.891 463.712,286.656 
						461.602,291.747 408.241,291.224 					"/>
					<path style="fill-rule:evenodd;clip-rule:evenodd;fill:#FFEEA3;" d="M494.794,278.88h49.661l2.851,9.439l-50.276,1.44
						C497.031,289.759,494.923,286.425,494.794,278.88z"/>
					<polygon style="fill-rule:evenodd;clip-rule:evenodd;fill:#B84318;" points="444.445,311.807 455.333,325.174 456.662,329.08 
						461.602,331.897 481.701,319.974 489.843,309.258 487.448,304.562 					"/>
					<polygon style="opacity:0.9;fill-rule:evenodd;clip-rule:evenodd;fill:#FFFFFF;" points="444.445,311.807 455.841,321.165 
						475.471,316.383 485.258,309.441 487.448,304.562 					"/>
					<g>
						<polygon style="fill-rule:evenodd;clip-rule:evenodd;fill:#B84318;" points="275.167,321.04 266.27,316.836 264.114,313.536 
							261.85,294.291 280.598,287.53 284.607,297.81 						"/>
						<polygon style="fill-rule:evenodd;clip-rule:evenodd;fill:#B84318;" points="286.865,337.255 283.541,331.214 
							283.541,330.101 291.688,327.891 294.39,329.929 290.251,337.255 						"/>
						<polygon style="fill-rule:evenodd;clip-rule:evenodd;fill:#B84318;" points="146.493,305.843 151.322,308.449 
							163.108,309.303 169.867,302.498 173.138,280.159 169.607,278.88 153.462,290.147 153.189,295.62 150.387,296.974 						"/>
						<polygon style="fill-rule:evenodd;clip-rule:evenodd;fill:#B84318;" points="118.889,321.04 122.018,315.868 126.845,314.02 
							132.671,315.501 128.834,321.165 123.382,324.241 						"/>
						<polygon style="fill-rule:evenodd;clip-rule:evenodd;fill:#B84318;" points="124.544,291.747 125.78,290.626 129.347,293.077 
							128.524,297.539 124.544,295.86 						"/>
						<polygon style="fill-rule:evenodd;clip-rule:evenodd;fill:#B84318;" points="507.446,302.498 504.573,306.112 502.883,314.02 
							508.003,316.383 520.83,313.715 521.05,308.324 						"/>
						<polygon style="opacity:0.9;fill-rule:evenodd;clip-rule:evenodd;fill:#FFFFFF;" points="507.446,302.498 504.573,306.112 
							509.203,312.085 520.83,313.715 521.05,308.324 						"/>
						<polygon style="opacity:0.9;fill-rule:evenodd;clip-rule:evenodd;fill:#FFFFFF;" points="261.85,294.291 268.183,302.498 
							273.229,303.362 284.607,297.81 280.598,287.53 						"/>
						<polygon style="opacity:0.9;fill-rule:evenodd;clip-rule:evenodd;fill:#FFFFFF;" points="153.462,290.147 157.43,294.082 
							169.334,292.115 173.138,280.159 169.607,278.88 						"/>
						<polygon style="opacity:0.9;fill-rule:evenodd;clip-rule:evenodd;fill:#FFFFFF;" points="153.189,295.62 163.3,299.862 
							156.609,299.862 150.387,296.974 						"/>
						<polygon style="opacity:0.9;fill-rule:evenodd;clip-rule:evenodd;fill:#FFFFFF;" points="124.544,291.747 125.208,293.637 
							127.808,294.091 129.347,293.077 125.78,290.626 						"/>
						<polygon style="opacity:0.9;fill-rule:evenodd;clip-rule:evenodd;fill:#FFFFFF;" points="118.889,321.04 122.018,321.841 
							129.347,319.595 132.671,315.501 126.845,314.02 122.018,315.868 						"/>
						<polygon style="opacity:0.9;fill-rule:evenodd;clip-rule:evenodd;fill:#FFFFFF;" points="283.541,330.101 285.692,332.656 
							290.901,332.656 294.39,329.929 291.688,327.891 						"/>
						<polygon style="opacity:0.7;fill-rule:evenodd;clip-rule:evenodd;fill:#DA7666;" points="475.471,316.383 473.834,323.276 
							456.662,329.08 461.602,331.897 481.701,319.974 489.843,309.258 487.448,304.562 485.258,309.441 						"/>
						<polygon style="opacity:0.7;fill-rule:evenodd;clip-rule:evenodd;fill:#DA7666;" points="509.203,312.085 508.003,316.383 
							520.83,313.715 						"/>
						<polygon style="opacity:0.7;fill-rule:evenodd;clip-rule:evenodd;fill:#DA7666;" points="273.229,303.362 272.056,316.589 
							266.27,316.836 275.167,321.04 284.607,297.81 						"/>
						<polygon style="opacity:0.7;fill-rule:evenodd;clip-rule:evenodd;fill:#DA7666;" points="290.901,332.656 290.251,337.255 
							294.39,329.929 						"/>
						<polygon style="opacity:0.7;fill-rule:evenodd;clip-rule:evenodd;fill:#DA7666;" points="169.334,292.115 165.992,299.862 
							163.3,299.862 156.609,299.862 151.322,308.449 163.108,309.303 169.867,302.498 173.138,280.159 						"/>
						<polygon style="opacity:0.7;fill-rule:evenodd;clip-rule:evenodd;fill:#DA7666;" points="129.347,319.595 128.834,321.165 
							132.671,315.501 						"/>
						<polygon style="opacity:0.7;fill-rule:evenodd;clip-rule:evenodd;fill:#DA7666;" points="127.808,294.091 126.54,296.702 
							128.524,297.539 129.347,293.077 						"/>
						<polygon style="opacity:0.7;fill-rule:evenodd;clip-rule:evenodd;fill:#DA7666;" points="487.448,304.562 492.149,309.425 
							492.149,316.589 483.275,330.274 461.602,331.897 456.662,329.08 455.841,321.165 475.471,316.383 485.258,309.441 						"/>
						<polygon style="opacity:0.7;fill-rule:evenodd;clip-rule:evenodd;fill:#DA7666;" points="502.883,314.02 509.029,320.18 
							527.289,315.501 521.05,308.324 520.83,313.715 509.203,312.085 508.003,316.383 						"/>
						<polygon style="opacity:0.7;fill-rule:evenodd;clip-rule:evenodd;fill:#DA7666;" points="280.598,287.53 288.966,299.862 
							283.119,324.822 278.861,326.685 266.27,316.836 268.183,302.498 273.229,303.362 284.607,297.81 						"/>
						<polygon style="opacity:0.7;fill-rule:evenodd;clip-rule:evenodd;fill:#DA7666;" points="283.541,331.214 286.868,339.239 
							294.144,340.734 296.595,334.302 294.39,329.929 290.97,333.345 290.251,337.255 286.865,337.255 						"/>
						<polygon style="opacity:0.7;fill-rule:evenodd;clip-rule:evenodd;fill:#DA7666;" points="156.609,299.862 151.322,308.449 
							146.493,305.843 148.742,310.945 167.966,314.149 176.816,301.658 173.138,280.159 165.992,299.862 						"/>
						<polygon style="opacity:0.7;fill-rule:evenodd;clip-rule:evenodd;fill:#DA7666;" points="132.671,315.501 130.753,321.841 
							125.78,325.68 118.889,321.04 122.018,321.841 129.347,319.595 						"/>
						<polygon style="opacity:0.7;fill-rule:evenodd;clip-rule:evenodd;fill:#DA7666;" points="129.347,293.077 129.649,298.92 
							127.944,301.658 124.544,295.86 126.54,296.702 127.808,294.091 						"/>
					</g>
					<polygon style="opacity:0.7;fill-rule:evenodd;clip-rule:evenodd;fill:#DA7666;" points="155.747,352.642 171.047,348.743 
						175.012,346.04 177.897,332.656 176.816,352.642 					"/>
					<path style="opacity:0.7;fill-rule:evenodd;clip-rule:evenodd;fill:#DA7666;" d="M251.091,339.541l0.903,3.109l8.951,6.094
						l4.163-2.191C265.108,346.552,258.561,345.055,251.091,339.541z"/>
					<polygon style="opacity:0.7;fill-rule:evenodd;clip-rule:evenodd;fill:#DA7666;" points="551.855,352.642 548.97,351.66 
						536.151,349.461 523.805,345.129 522.062,344.118 522.062,352.642 					"/>
					<path style="opacity:0.7;fill-rule:evenodd;clip-rule:evenodd;fill:#DA7666;" d="M94.355,352.642l-5.286-9.993l1.973-0.356
						l3.313,3.135c6.62,3.746,10.619,5.668,18.347,6.836L94.355,352.642z"/>
				</g>
			</g>
			<g>
				<g>
					
						<linearGradient id="SVGID_00000082346659049880294700000001600904100723655608_" gradientUnits="userSpaceOnUse" x1="1240.9841" y1="141.5189" x2="1223.8768" y2="234.4601" gradientTransform="matrix(1 0 0.0574 1 -1088.9916 0)">
						<stop  offset="0" style="stop-color:#E3E734"/>
						<stop  offset="0.0555" style="stop-color:#D8DD2B"/>
						<stop  offset="0.2429" style="stop-color:#B7C010"/>
						<stop  offset="0.3459" style="stop-color:#ABB506"/>
						<stop  offset="1" style="stop-color:#6C9500"/>
					</linearGradient>
					<path style="fill:url(#SVGID_00000082346659049880294700000001600904100723655608_);" d="M182.911,220.448
						c-0.294,1.5-0.751,2.94-1.386,4.26c-0.607,1.27-1.391,2.43-2.375,3.4c-1.013,1-2.236,1.81-3.705,2.35
						c-0.686,0.25-5.63,0.69-9.027,0.75c-0.002,0.66,0.006,1.32,0.004,1.98l0.002,0.03c-0.027,6.67,0.394,14.01-0.316,20.64h-12.18
						c-0.651-11.53-1.135-22.92-2.662-34.38c-2.794-0.24-5.581-0.54-8.346-0.8c-0.161-0.01-0.312-0.03-0.472-0.04
						c-3.845-0.43-7.813-1.63-10.903-3.88c-2.829-2.07-4.388-5.54-5.275-8.63c-1.212-4.22-1.539-8.71-2.055-12.99
						c-0.562-4.57-0.865-9.15-0.886-13.71c-0.017-2.91-0.787-6.22,0.681-8.88c0.027-0.05,0.055-0.09,0.082-0.14
						c0.658-1.09,1.796-1.99,3.093-2.39c0.972-0.31,2.031-0.33,3.022,0.04c2.647,0.99,3.459,4,3.825,6.53
						c1.174,8.09,1.73,16.21,1.664,24.3c-0.017,3.19-0.005,6.71,2.376,9.18c0.788,0.84,1.774,1.46,2.85,1.92
						c1.713,0.75,3.674,1.11,5.548,1.36c1.189,0.15,2.37,0.35,3.548,0.48c0.061,0.01,0.111,0.01,0.171,0.02
						c-1.596-10.91-3.181-21.81-4.777-32.72c-0.986-6.74-1.957-13.72-0.155-20.14c0.374-1.32,0.872-2.75,1.528-4.05
						c1.068-2.12,2.556-3.9,4.619-4.37c1.105-0.26,2.382-0.14,3.849,0.51c2.298,1.02,4.056,3.07,5.214,5.31
						c2.361,4.55,2.294,9.48,2.924,14.37c1.784,13.85,2.571,27.74,2.876,41.61c0.078,3.98,0.127,7.97,0.145,11.95l0.003,0.05
						c0.237-0.05,0.484-0.11,0.72-0.17c1.232-0.31,2.388-0.73,2.61-0.88c1.895-1.31,3.786-3.2,4.476-5.47
						c1.247-4.06-0.455-9.15-0.709-13.41c-0.178-2.93-0.266-6.2,0.498-9.11c0.073-0.29,0.167-0.58,0.27-0.87
						c0.068-0.21,0.136-0.41,0.215-0.61c0.218-0.56,0.477-1.09,0.778-1.6c0.555-0.95,1.532-1.71,2.661-1.73
						c1.229-0.02,2.388,0.83,3.068,1.89c0.681,1.06,0.971,2.29,1.211,3.51C183.839,203.839,184.483,212.638,182.911,220.448z"/>
					<path style="fill:#507B3C;" d="M156.974,232.893c-0.049-0.411-0.141-0.815-0.232-1.22c-0.028-0.127-0.053-0.257-0.086-0.383
						c-0.024-0.154-0.082-0.297-0.174-0.431c0.049,0.104,0.045,0.085-0.014-0.059c-0.138-0.391-0.325-0.696-0.598-0.928
						c-0.217-0.185-0.55-0.359-0.813-0.216c-0.19,0.104-0.325,0.241-0.438,0.391c-0.283-3.716-0.588-7.434-0.938-11.159
						c-5.968-1.89-12.775-0.61-18.081-4.03c-4.123-2.66-6.242-7.53-7.609-12.19c-0.421-1.435-0.791-2.879-1.124-4.328
						c0.134,0.279,0.26,0.562,0.403,0.838c0.348,0.671,1.187,0.146,1.066-0.46c-0.081-0.408-0.145-0.818-0.202-1.228
						c0.082-0.294,0.035-0.58-0.008-0.922c-0.049-0.395-0.084-0.779-0.158-1.173c-0.155-0.822-0.292-1.641-0.415-2.467
						c-0.118-0.788-0.2-1.584-0.264-2.375c-0.032-0.395-0.093-0.787-0.118-1.182c-0.024-0.387-0.168-0.697-0.22-1.076
						c-0.046-0.332-0.56-0.559-0.71-0.189c-0.169,0.416-0.386,0.724-0.482,1.173c-0.082,0.382-0.173,0.747-0.22,1.137
						c-0.02,0.165-0.026,0.331-0.041,0.496c-0.968-6.792-1.256-13.67-1.408-20.501c-0.027,0.05-0.055,0.09-0.082,0.14
						c-1.467,2.66-0.698,5.97-0.681,8.88c0.022,4.56,0.324,9.14,0.886,13.71c0.516,4.28,0.843,8.77,2.055,12.99
						c0.887,3.09,2.446,6.56,5.275,8.63c3.089,2.25,7.058,3.45,10.903,3.88c0.161,0.01,0.312,0.03,0.472,0.04
						c2.765,0.26,5.552,0.56,8.346,0.8c1.527,11.46,2.01,22.85,2.662,34.38h2.06c-0.213-5.646-0.505-11.279-0.872-16.914
						c0.008,0.02,0.012,0.041,0.02,0.061c0.27,0.688,1.278,0.737,1.447,0c0.071-0.311,0.103-0.647,0.197-0.939
						c0.103-0.321,0.138-0.371,0.161-0.72c0.012-0.177,0.02-0.354,0.03-0.531c0.017-0.309,0.016-0.618,0.015-0.929
						c0-0.058,0.017-0.602-0.002-0.277C156.998,233.339,157.005,233.153,156.974,232.893z"/>
					<path style="fill:#507B3C;" d="M150.017,211.828c0.061,0.01,0.111,0.01,0.171,0.02c-1.596-10.91-3.181-21.81-4.777-32.72
						c-0.986-6.74-1.957-13.72-0.155-20.14c0.374-1.32,0.872-2.75,1.528-4.05c0.034,19.25,1.583,38.59,4.624,57.78
						C150.885,212.488,150.418,212.188,150.017,211.828z"/>
					<path style="fill:#507B3C;" d="M181.526,224.708c-1.232,2.58-3.182,4.68-6.08,5.75c-0.686,0.25-5.63,0.69-9.027,0.75
						c-0.002,0.66,0.006,1.32,0.004,1.98c-0.01,0-0.01,0-0.02,0c0.001-1.02-0.007-2.04-0.006-3.06c3.134-0.1,6.197-0.4,9.108-1.43
						C177.807,227.878,179.972,226.558,181.526,224.708z"/>
					<path style="fill:#507B3C;" d="M150.668,175.971c0.063-0.12,0.09-0.25,0.083-0.389c-0.001-0.094-0.016-0.191-0.025-0.285
						c-0.024-0.244-0.057-0.481-0.109-0.723c-0.091-0.423-0.256-0.789-0.381-1.209c-0.128-0.434-0.843-0.46-0.904,0
						c-0.061,0.464-0.168,0.891-0.181,1.361c-0.005,0.192,0.009,0.379,0.028,0.571c0.015,0.154,0.015,0.345,0.071,0.49
						c0.045,0.117,0.085,0.163,0.107,0.264c0.088,0.4,0.167,0.802,0.254,1.202c0.091,0.421,0.187,0.87,0.409,1.251
						c0.156,0.268,0.52,0.17,0.595-0.078c0.114-0.379,0.099-0.828,0.093-1.227c-0.003-0.222-0.005-0.443-0.007-0.665
						c-0.001-0.19,0.044-0.434-0.003-0.618C150.702,175.832,150.692,175.851,150.668,175.971z"/>
					<path style="fill:#507B3C;" d="M151.84,182.552c-0.034-0.287-0.273-0.565-0.582-0.551c-0.313,0.014-0.518,0.242-0.519,0.551
						c-0.001,0.338-0.003,0.677-0.004,1.015c-0.001,0.206,0.055,0.408,0.1,0.611c0.018,0.079,0.035,0.159,0.053,0.238
						c0.032,0.146,0.112,0.255,0.223,0.358c0.178,0.165,0.454,0.166,0.613,0c0.099-0.102,0.166-0.209,0.182-0.358l0.023-0.22
						c0.022-0.209,0.057-0.417,0.032-0.629C151.921,183.228,151.88,182.89,151.84,182.552z"/>
					<path style="fill:#507B3C;" d="M163.954,201.753c-0.067-0.276-0.46-0.236-0.52,0c-0.518,2.037-0.476,4.277-0.565,6.391
						c-0.022,0.533-0.022,1.075,0.001,1.611c0.023,0.54,0.152,1.071,0.201,1.612c0.096,1.057,0.157,2.157,0.428,3.196
						c0.094,0.36,0.629,0.332,0.701,0c0.213-0.989,0.221-2.056,0.275-3.072c0.031-0.587,0.152-1.147,0.154-1.736
						c0.001-0.536-0.007-1.075-0.041-1.611C164.449,206.033,164.459,203.836,163.954,201.753z"/>
					<path style="fill:#507B3C;" d="M162.698,214.115c-0.008-0.037-0.008-0.158-0.006-0.043c-0.001-0.056-0.013-0.114-0.02-0.169
						c-0.028-0.236-0.055-0.473-0.083-0.71c-0.033-0.282-0.231-0.514-0.519-0.553c-0.263-0.035-0.552,0.128-0.594,0.403l-0.1,0.652
						c-0.042,0.271-0.136,0.539-0.14,0.816c-0.003,0.223,0.013,0.453,0.035,0.676c0.011,0.113,0.019,0.225,0.033,0.338
						c0.018,0.146,0.067,0.266,0.135,0.378c0.006,0.027,0.012,0.055,0.014,0.061l0.038,0.237l0.07,0.439
						c0.032,0.203,0.162,0.377,0.379,0.403c0.199,0.023,0.393-0.092,0.433-0.294c0.048-0.243,0.086-0.503,0.15-0.746
						c0.06-0.074,0.107-0.158,0.133-0.263c0.026-0.104,0.029-0.22,0.043-0.328c0.033-0.253,0.05-0.509,0.069-0.765
						C162.781,214.466,162.738,214.294,162.698,214.115z"/>
					<path style="fill:#507B3C;" d="M158.138,239.271c-0.036-0.2-0.097-0.38-0.189-0.565c-0.03-0.06-0.114-0.113-0.176-0.129
						c-0.068-0.018-0.158-0.01-0.215,0.028c-0.058,0.039-0.107,0.096-0.12,0.168c-0.013,0.076,0.004,0.142,0.04,0.211
						c-0.001-0.001-0.001-0.003-0.002-0.004c0.001,0.003,0.002,0.006,0.003,0.008c0,0,0,0.001,0,0.001s0,0.001,0,0.001
						c0.054,0.116,0.093,0.237,0.119,0.36c0.009,0.055,0.017,0.109,0.02,0.164c0.005,0.087-0.012,0.182,0.018,0.267
						c0.036,0.101,0.124,0.174,0.23,0.188c0.107,0.014,0.202-0.035,0.255-0.126c0.04-0.068,0.038-0.149,0.041-0.227
						c0.002-0.037,0.002-0.074,0-0.11C158.161,239.428,158.152,239.349,158.138,239.271z"/>
					<path style="fill:#507B3C;" d="M177.667,216.63c-0.106-0.112-0.337-0.152-0.458-0.059c-0.223,0.173-0.388,0.31-0.45,0.604
						c-0.052,0.248-0.095,0.496-0.157,0.742c-0.119,0.475-0.238,0.956-0.382,1.423c-0.07,0.227-0.16,0.446-0.227,0.674
						c-0.034,0.116-0.015,0.272-0.027,0.358c-0.015,0.111-0.073,0.229-0.11,0.333c-0.163,0.459-0.366,0.901-0.533,1.359
						c-0.126,0.345,0.251,0.639,0.538,0.398c0.41-0.345,0.712-0.751,1.004-1.199c0.072-0.111,0.142-0.224,0.211-0.338l-0.055,0.043
						c0.044-0.036,0.088-0.072,0.133-0.107c0.065-0.061,0.124-0.122,0.169-0.201c0.143-0.256,0.229-0.559,0.323-0.837
						c0.164-0.485,0.285-0.967,0.331-1.483c0.026-0.299,0.046-0.599,0.051-0.901C178.033,217.093,177.904,216.88,177.667,216.63z"/>
					<path style="fill:#507B3C;" d="M130.249,199.275c-0.005-0.085-0.031-0.163-0.078-0.237c-0.046-0.07-0.105-0.126-0.178-0.168
						c-0.115-0.059-0.242-0.081-0.364-0.047c-0.112,0.031-0.214,0.114-0.268,0.215c-0.081,0.153-0.057,0.319,0.027,0.473
						c0.017,0.032,0.033,0.064,0.049,0.096c0.064,0.139,0.122,0.281,0.168,0.427c0.023,0.075,0.044,0.15,0.062,0.226
						c0.009,0.037,0.014,0.076,0.025,0.113c0.011,0.04,0.032,0.078,0.048,0.116c0.04,0.094,0.111,0.163,0.215,0.176
						c0.094,0.013,0.198-0.03,0.238-0.117c0.026-0.056,0.055-0.114,0.068-0.175c0.01-0.047,0.012-0.096,0.017-0.144
						c0.011-0.121,0.02-0.242,0.02-0.364C130.301,199.669,130.284,199.471,130.249,199.275z"/>
					<path style="fill:#507B3C;" d="M132.866,175.126c-0.093-0.478-0.19-0.979-0.355-1.442c-0.164-0.459-0.443-0.87-0.727-1.267
						c-0.047-0.066-0.156-0.043-0.151,0.041c0.028,0.444,0.023,0.89,0.097,1.332c0.079,0.471,0.186,0.934,0.245,1.407
						c0.057,0.458,0.088,0.914,0.106,1.373c0.009,0.241,0.008,0.482,0.062,0.72c0.055,0.241,0.038,0.47,0.243,0.649
						c0.109,0.095,0.295,0.141,0.415,0.053c0.231-0.17,0.234-0.386,0.278-0.657c0.038-0.238,0.031-0.471,0.01-0.716
						C133.049,176.121,132.963,175.621,132.866,175.126z"/>
					<path style="fill:#507B3C;" d="M151.469,200.125c-0.118-0.848-0.239-1.695-0.364-2.543c-0.26-1.765-0.589-3.497-1.313-5.161
						c-0.108-0.247-0.554-0.329-0.588,0c-0.178,1.758,0.002,3.489,0.243,5.259c0.12,0.88,0.236,1.76,0.347,2.641
						c0.104,0.817,0.144,1.898,0.768,2.534c0.267,0.273,0.667,0.163,0.84-0.109c0.195-0.306,0.241-0.875,0.242-1.251
						C151.646,201.049,151.53,200.568,151.469,200.125z"/>
					<path style="fill:#507B3C;" d="M153.616,202.71c-0.033-0.242-0.069-0.484-0.102-0.727c-0.031-0.229-0.044-0.504-0.149-0.723
						c-0.033-0.094-0.065-0.189-0.095-0.285c-0.088-0.278-0.448-0.292-0.583-0.076c-0.05,0.081-0.098,0.162-0.146,0.245
						c-0.139,0.186-0.184,0.45-0.22,0.679c-0.044,0.29-0.069,0.591-0.061,0.887c0.002,0.067,0.002,0.136,0.008,0.203
						c0.003,0.019,0.005,0.039,0.008,0.058c0.008,0.124,0.046,0.24,0.114,0.347c-0.038-0.155,0.007,0.03,0.013,0.05
						c0.02,0.065,0.04,0.13,0.061,0.194c0.039,0.12,0.078,0.242,0.127,0.359c0.062,0.149,0.161,0.27,0.259,0.398
						c0.098,0.128,0.234,0.209,0.396,0.185c0.146-0.022,0.278-0.126,0.306-0.277c0.023-0.125,0.055-0.249,0.065-0.376
						c0.011-0.137-0.003-0.278-0.005-0.416c-0.001-0.054,0-0.107,0-0.16C153.667,203.168,153.626,202.782,153.616,202.71z"/>
					<path style="fill:#507B3C;" d="M164.194,236.685c-0.152-0.441-0.773-0.428-0.881,0c-0.287,1.135-0.366,2.333-0.436,3.511
						c-0.067,1.131-0.15,2.252-0.176,3.388c-0.01,0.436-0.012,0.873-0.021,1.309c-0.083-0.244-0.166-0.492-0.33-0.686
						c-0.06-0.104-0.125-0.203-0.233-0.264c-0.055-0.031-0.201-0.105-0.268-0.078c-0.136,0.055-0.266,0.101-0.337,0.239
						c-0.034,0.055-0.04,0.072-0.02,0.049c0.04-0.042,0.015-0.005-0.077,0.11c-0.092,0.163-0.108,0.369-0.142,0.553
						c-0.039,0.212-0.084,0.421-0.084,0.64c0,0.174,0.015,0.351,0.023,0.526c0.015,0.355,0.055,0.698,0.107,1.051
						c0.026,0.175,0.049,0.351,0.078,0.526c0.059,0.365,0.183,0.608,0.517,0.802c0.199,0.115,0.492,0.132,0.674,0
						c0.055-0.04,0.098-0.081,0.142-0.122c0.025,0.201,0.044,0.401,0.09,0.601c0.116,0.515,0.375,0.932,0.534,1.4
						c0.151,0.443,0.865,0.6,1.057,0.137c0.22-0.529,0.549-0.955,0.674-1.537c0.132-0.615,0.168-1.237,0.181-1.873
						c0.023-1.129-0.008-2.253-0.056-3.385C165.115,241.332,164.946,238.862,164.194,236.685z"/>
					
						<linearGradient id="SVGID_00000062190344683895489810000014643064449866951823_" gradientUnits="userSpaceOnUse" x1="1260.092" y1="187.511" x2="1246.5831" y2="249.6272" gradientTransform="matrix(1 0 0.0574 1 -1088.9916 0)">
						<stop  offset="0" style="stop-color:#AA8768"/>
						<stop  offset="0.2861" style="stop-color:#765E48"/>
						<stop  offset="0.7763" style="stop-color:#211B14"/>
						<stop  offset="1" style="stop-color:#000000"/>
					</linearGradient>
					<path style="fill:url(#SVGID_00000062190344683895489810000014643064449866951823_);" d="M182.214,195.918
						c-0.24-1.22-0.531-2.45-1.211-3.51c-0.681-1.06-1.84-1.91-3.068-1.89c-1.129,0.02-2.105,0.78-2.661,1.73
						c-0.301,0.51-0.56,1.04-0.778,1.6c0.323,0.58,0.9,1.04,1.564,1.46c1.681,1.07,2.797,1.34,3.454,3.38
						c2.286,7.07,1.58,13.6,0.857,20.69c-0.142,1.36-0.324,2.71-0.598,4.04c-0.143,0.65-0.366,1.29-0.458,1.95
						c-0.099,0.71-0.097,1.44-0.267,2.14c-0.048,0.2-0.006,0.42,0.104,0.6c0.984-0.97,1.768-2.13,2.375-3.4
						c0.634-1.32,1.092-2.76,1.386-4.26C184.483,212.638,183.839,203.839,182.214,195.918z"/>
					
						<linearGradient id="SVGID_00000015346908887668842900000013918727073094594225_" gradientUnits="userSpaceOnUse" x1="1253.7719" y1="119.6024" x2="1225.9418" y2="231.9441" gradientTransform="matrix(1 0 0.0574 1 -1088.9916 0)">
						<stop  offset="0" style="stop-color:#AA8768"/>
						<stop  offset="0.2861" style="stop-color:#765E48"/>
						<stop  offset="0.7763" style="stop-color:#211B14"/>
						<stop  offset="1" style="stop-color:#000000"/>
					</linearGradient>
					<path style="fill:url(#SVGID_00000015346908887668842900000013918727073094594225_);" d="M166.413,224.318
						c-0.018-3.98-0.067-7.97-0.145-11.95c-0.305-13.87-1.092-27.76-2.876-41.61c-0.631-4.89-0.563-9.82-2.924-14.37
						c-1.158-2.24-2.916-4.29-5.214-5.31c-1.957-0.867-3.782-0.874-5.288,0.526c-0.284,0.264-0.474,0.659-0.393,1.053
						c0.098,0.474,0.536,0.804,0.93,1.1c6.205,4.666,7.951,12.623,9.137,19.73c0.686,4.11,0.776,8.3,1.342,12.42
						c0.715,8.11,1.22,16.21,1.635,24.32c0.278,5.54,0.506,11.09,0.774,16.63c0.118,2.4,3.593,2.32,3.67,0
						c0.029-0.89,0.059-1.77,0.077-2.66c-0.236,0.06-0.483,0.12-0.72,0.17L166.413,224.318z"/>
					
						<linearGradient id="SVGID_00000006688431286489265750000001189888490708375992_" gradientUnits="userSpaceOnUse" x1="1217.8419" y1="165.5896" x2="1202.9325" y2="234.1456" gradientTransform="matrix(1 0 0.0574 1 -1088.9916 0)">
						<stop  offset="0" style="stop-color:#AA8768"/>
						<stop  offset="0.2861" style="stop-color:#765E48"/>
						<stop  offset="0.7763" style="stop-color:#211B14"/>
						<stop  offset="1" style="stop-color:#000000"/>
					</linearGradient>
					<path style="fill:url(#SVGID_00000006688431286489265750000001189888490708375992_);" d="M141.832,210.868
						c-0.336-0.27-0.594-0.6-0.91-0.88c-1.076-0.46-2.062-1.08-2.85-1.92c-2.382-2.47-2.393-5.99-2.376-9.18
						c0.066-8.09-0.49-16.21-1.664-24.3c-0.365-2.53-1.178-5.54-3.825-6.53c-0.991-0.37-2.05-0.35-3.022-0.04
						c-0.156,0.24-0.24,0.53-0.222,0.84c0.057,0.82,0.754,1.47,1.33,2.09c2.505,2.71,2.395,5.66,2.817,9.02
						c0.566,4.46,0.953,8.94,1.378,13.4c0.398,4.15,0.465,8.29,2.348,12.17c0.715,1.48,1.604,2.85,2.741,4.02
						c0.574,0.6,1.227,1.17,1.921,1.59c0.684,0.41,1.342,0.38,2.102,0.38C141.9,211.529,142.114,211.078,141.832,210.868z"/>
					<path style="fill:#507B3C;" d="M175.722,219.768c-0.659,1.94-2.202,3.45-3.962,4.49c-1.761,1.03-3.756,1.64-5.721,2.24
						c-0.143-0.75,0.044-1.5,0.375-2.18l0.003,0.05c1.472-0.31,3.07-0.87,3.33-1.05c1.895-1.31,3.786-3.2,4.476-5.47
						c1.247-4.06-0.455-9.15-0.709-13.41c-0.178-2.93-0.266-6.2,0.498-9.11c0.073-0.29,0.167-0.58,0.27-0.87
						c0.103,0.05,0.218,0.14,0.326,0.28c0.451,0.54-0.1,3.49-0.107,4.23c0,1.57,0.04,3.14,0.13,4.71
						c0.169,2.94,0.487,5.88,0.965,8.8C175.994,214.918,176.501,217.478,175.722,219.768z"/>
					<g>
						<path style="fill:#FFF3C7;" d="M169.233,224.182c-0.221,0.15-1.377,0.57-2.609,0.88c-0.237,0.06-0.483,0.12-0.72,0.17
							l-0.003-0.05c-0.018-3.98-0.067-7.97-0.145-11.95c-0.305-13.87-1.092-27.76-2.876-41.61c-0.631-4.89-0.563-9.82-2.924-14.37
							c-1.158-2.24-2.916-4.29-5.215-5.31c-1.467-0.65-2.744-0.77-3.849-0.51c-1.623,0.37-2.885,1.555-3.872,3.074
							c1.049-1.924,2.466-3.5,4.385-3.937c1.105-0.26,2.382-0.14,3.849,0.51c2.298,1.02,4.056,3.07,5.215,5.31
							c2.361,4.55,2.294,9.48,2.924,14.37c1.784,13.85,2.571,27.74,2.876,41.61c0.078,3.98,0.127,7.97,0.145,11.95l0.003,0.05
							c0.237-0.05,0.484-0.11,0.72-0.17c1.232-0.31,2.388-0.73,2.61-0.88c1.272-0.88,2.534-2.026,3.441-3.368
							C172.294,221.67,170.77,223.119,169.233,224.182z"/>
						<path style="fill:#FFF3C7;" d="M149.537,211.765c0.046,0.315,0.092,0.631,0.138,0.946c-0.061-0.01-0.111-0.01-0.171-0.02
							c-1.177-0.13-2.359-0.33-3.548-0.48c-1.874-0.25-3.835-0.61-5.548-1.36c-1.076-0.46-2.062-1.08-2.85-1.92
							c-2.382-2.47-2.393-5.99-2.376-9.18c0.066-8.09-0.49-16.21-1.664-24.3c-0.365-2.53-1.178-5.54-3.825-6.53
							c-0.991-0.37-2.05-0.35-3.022-0.04c-1.142,0.352-2.141,1.103-2.817,2.019c0.055-0.117,0.092-0.238,0.155-0.352
							c0.027-0.05,0.055-0.09,0.082-0.14c0.658-1.09,1.796-1.99,3.093-2.39c0.972-0.31,2.031-0.33,3.022,0.04
							c2.647,0.99,3.459,4,3.825,6.53c1.174,8.09,1.73,16.21,1.664,24.3c-0.017,3.19-0.005,6.71,2.376,9.18
							c0.788,0.84,1.774,1.46,2.85,1.92c1.713,0.75,3.674,1.11,5.548,1.36C147.497,211.478,148.518,211.639,149.537,211.765z"/>
						<path style="fill:#FFF3C7;" d="M165.911,234.082l-0.002-0.03c0.002-0.66-0.006-1.32-0.004-1.98
							c0.167-0.003,0.34-0.007,0.514-0.012c0.002,0.376,0.003,0.753,0.002,1.129l0.002,0.03c-0.027,6.67,0.394,14.01-0.316,20.64
							h-0.439C166.258,247.457,165.884,240.466,165.911,234.082z"/>
						<path style="fill:#FFF3C7;" d="M181.013,225.572c0.634-1.32,1.092-2.76,1.386-4.26c1.572-7.81,0.927-16.61-0.697-24.53
							c-0.24-1.22-0.531-2.45-1.211-3.51c-0.681-1.06-1.84-1.91-3.068-1.89c-0.976,0.017-1.838,0.589-2.412,1.358
							c0.086-0.165,0.17-0.331,0.264-0.491c0.555-0.95,1.532-1.71,2.661-1.73c1.229-0.02,2.388,0.83,3.068,1.89
							s0.971,2.29,1.211,3.51c1.624,7.92,2.269,16.72,0.697,24.53c-0.294,1.5-0.751,2.94-1.386,4.26
							c-0.248,0.518-0.533,1.012-0.841,1.488C180.797,225.99,180.911,225.785,181.013,225.572z"/>
					</g>
				</g>
				<path style="fill:#9C7240;" d="M169.774,254.042c-0.494-1.39-0.911-2.578-1.915-3.682c-0.27-0.297-0.652-0.607-1.016-0.487
					c-0.267,0.088-0.399,0.374-0.505,0.634c-0.387,0.955-0.774,1.91-1.161,2.865c0.013-0.279,0.024-0.566-0.072-0.834
					c-0.096-0.268-0.327-0.516-0.607-0.544c-0.253-0.025-0.476,0.127-0.671,0.276c-0.543,0.415-1.232,0.711-1.717,1.191
					c0.281-1.045,0.561-2.09,0.842-3.136c0.079-0.296,0.143-0.657-0.077-0.889c-0.285-0.301-0.769-0.125-1.101,0.086
					c-1.411,0.894-2.825,2.146-3.773,3.518c0.126-1.957,0-3.945-0.372-5.899c-1.226,1.869-1.655,4.201-2.012,6.445
					c-1.599-2.611-3.214-5.464-5.901-6.926c0.088,2.94,0.585,6.358,3.317,7.634C155.734,255.553,168.244,254.757,169.774,254.042z"
					/>
			</g>
		</g>
		<g>
			<g>
				<polygon style="fill-rule:evenodd;clip-rule:evenodd;fill:#DD5E37;" points="548.856,91.616 527.356,122.536 526.316,124.826 
					511.186,158.036 501.856,160.876 486.526,167.586 481.356,167.586 476.736,164.956 470.736,152.206 463.856,151.286 
					461.476,151.286 442.106,141.356 439.476,138.826 441.186,124.196 430.356,111.086 420.526,89.706 502.606,86.956 
					547.106,89.586 				"/>
				<path style="opacity:0.7;fill-rule:evenodd;clip-rule:evenodd;fill:#DA7666;" d="M526.316,124.826l-15.13,33.21l-9.33,2.84
					l-15.33,6.71h-5.17l-4.62-2.63l-6-12.75l-6.88-0.92h-2.38l5.21-3.41l-1.5-18.768l-4.247-9.069c0,0,11.247,14.577,11.247,15.707
					c0,1.13,0,6.79,0,6.79l33.17-12.92l3-4.74l-0.63-14.94L526.316,124.826z"/>
				<path style="opacity:0.7;fill-rule:evenodd;clip-rule:evenodd;fill:#DA7666;" d="M441.189,124.195l1-1.656
					c0,0,9.833-2.833,18.75-2.5l-7.667-10.102c0,0-10.167-1.315-22.917,1.144L441.189,124.195z"/>
				<polygon style="opacity:0.7;fill-rule:evenodd;clip-rule:evenodd;fill:#DA7666;" points="470.736,152.206 484.691,149.089 
					495.189,138.826 505.356,129.616 472.186,142.536 466.686,147.876 461.476,151.286 				"/>
				<polygon style="opacity:0.7;fill-rule:evenodd;clip-rule:evenodd;fill:#DA7666;" points="476.736,164.956 481.856,164.956 
					495.689,160.706 505.356,151.283 509.522,131.675 505.356,129.616 508.356,124.876 507.726,109.936 526.316,124.826 
					511.186,158.036 501.856,160.876 486.526,167.586 481.356,167.586 				"/>
				<path style="fill-rule:evenodd;clip-rule:evenodd;fill:#F2B055;" d="M420.526,89.706c0,0,10.265,21.278,11.361,21.097
					c1.096-0.181,19.335-1.93,20.444-2.93c1.108-1-1.234-19.191-1.234-19.191L420.526,89.706z"/>
				<path style="fill-rule:evenodd;clip-rule:evenodd;fill:#F2B055;" d="M453.731,108.456c-0.248,0.801,2,3.938,2.688,4.313
					s3.688-3.25,3.688-4.313S454.189,106.975,453.731,108.456z"/>
				<path style="fill-rule:evenodd;clip-rule:evenodd;fill:#F2B055;" d="M452.331,88.682c0,0,0.775,16.462,1.9,17.399
					s8.813,1.313,15.438-0.438s14.186-18.059,14.186-18.059L452.331,88.682z"/>
				<path style="fill-rule:evenodd;clip-rule:evenodd;fill:#F2B055;" d="M507.106,124.824c-0.368,0.928-13.667-2.201-18.083-6.534
					c-4.417-4.333-9.25-19.207-8.833-21.062c0.417-1.855,5.25-9.643,5.25-9.643l23.886-0.231l-2.195,18.77
					C507.13,106.123,507.522,123.775,507.106,124.824z"/>
				<path style="fill-rule:evenodd;clip-rule:evenodd;fill:#F2B055;" d="M505.772,127.271c1.974-1.216-21.917-7.565-28.25-6.732
					c-6.333,0.833-5.143,18.729-3.667,19.75C475.332,141.311,504.022,128.35,505.772,127.271z"/>
				<path style="opacity:0.4;fill-rule:evenodd;clip-rule:evenodd;fill:#FFD8B3;" d="M482.487,118.064
					c-0.689-0.447,1.361-2.256,1.919-2.252c0.558,0.004,1.739,2.173,1.633,2.57C485.933,118.78,482.936,118.356,482.487,118.064z"/>
				<path style="fill-rule:evenodd;clip-rule:evenodd;fill:#F2B055;" d="M458.142,116.354c-1.113-1.031,2.964-7.46,3.964-8.21
					s15.188-4.188,17.125-3.438s4.932,7.054,4.185,8.09c-0.747,1.035-12.323,13.241-13.685,13.66S460.865,118.876,458.142,116.354z"
					/>
				<polygon style="fill-rule:evenodd;clip-rule:evenodd;fill:#FFEEA3;" points="452.67,94.457 481.466,92.206 478.419,97.228 
					452.875,97.228 				"/>
				<polygon style="fill-rule:evenodd;clip-rule:evenodd;fill:#FFEEA3;" points="452.331,100.797 427.361,103.353 424.231,97.228 
					452.198,98.64 				"/>
				<polygon style="fill-rule:evenodd;clip-rule:evenodd;fill:#FFEEA3;" points="452.556,103.353 428.316,105.156 428.865,106.17 
					452.556,104.6 				"/>
				<path style="opacity:0.7;fill-rule:evenodd;clip-rule:evenodd;fill:#DA7666;" d="M495.689,160.706l-10.998-11.617
					c0,0,7.797,9.005,13.022,9.644L495.689,160.706z"/>
				<path style="opacity:0.7;fill-rule:evenodd;clip-rule:evenodd;fill:#DA7666;" d="M506.622,127.615l-0.85-0.343
					c0,0-1.855-2.395-12.145-4.414c0,0,10.041,2.709,13.478,1.966l1.25,0.052L506.622,127.615z"/>
				<polygon style="opacity:0.7;fill-rule:evenodd;clip-rule:evenodd;fill:#DA7666;" points="482.809,106.87 507.308,104.6 
					507.183,108.79 483.572,108.79 				"/>
				<polygon style="opacity:0.7;fill-rule:evenodd;clip-rule:evenodd;fill:#DA7666;" points="423.356,96.623 452.003,96.623 
					453.081,98.64 453.081,96.623 480.939,93.79 481.466,94.457 505.732,97.228 506.719,91.462 481.466,84.734 421.675,92.206 				
					"/>
				<g>
					<path style="fill-rule:evenodd;clip-rule:evenodd;fill:#B84318;" d="M441.189,124.195l-1.713,14.631l1.713,2.085l20.287,10.375
						l5.21-3.41l-1.5-18.768l-4.247-9.069c0,0-13.417,0.083-18.75,2.5L441.189,124.195z"/>
					<path style="opacity:0.9;fill-rule:evenodd;clip-rule:evenodd;fill:#FFFFFF;" d="M439.476,138.826h7.255l5.94-3.163
						l8.805-12.805l-0.537-2.818c0,0-7.917-0.667-18.75,2.5l-1,1.656L439.476,138.826z"/>
					<polygon style="opacity:0.7;fill-rule:evenodd;clip-rule:evenodd;fill:#DA7666;" points="452.67,135.663 466.686,147.876 
						465.186,129.109 460.939,120.04 461.476,122.858 					"/>
					<polygon style="fill-rule:evenodd;clip-rule:evenodd;fill:#FFF6CF;" points="450.476,136.832 454.833,132.518 456.909,138.826 
											"/>
					<polygon style="opacity:0.7;fill-rule:evenodd;clip-rule:evenodd;fill:#DA7666;" points="466.686,147.876 472.186,142.536 
						472.186,135.746 460.939,120.04 461.476,122.858 454.833,132.518 456.909,138.826 					"/>
					<polygon style="opacity:0.4;fill-rule:evenodd;clip-rule:evenodd;fill:#FFDDD6;" points="452.331,146.609 446.731,138.826 
						453.692,120.465 451.439,120.706 447.522,133.537 446.731,133.958 448.856,121.04 447.481,121.307 443.439,138.761 
						446.856,143.79 					"/>
					<polygon style="fill-rule:evenodd;clip-rule:evenodd;fill:#FFF6CF;" points="442.106,138.761 439.565,138.063 439.476,138.826 
						441.189,140.911 					"/>
				</g>
				
					<linearGradient id="SVGID_00000095304606355204713210000010966647109434863491_" gradientUnits="userSpaceOnUse" x1="487.0432" y1="79.5713" x2="487.0432" y2="103.3533">
					<stop  offset="0.1899" style="stop-color:#F5D46F"/>
					<stop  offset="1" style="stop-color:#FC8332"/>
				</linearGradient>
				<path style="fill-rule:evenodd;clip-rule:evenodd;fill:url(#SVGID_00000095304606355204713210000010966647109434863491_);" d="
					M420.526,83.081c0,0-6.67-3.847-8.295-3.486s-9,4.361-9.875,7.361l6.75-1.396c0,0-7.625,8.19-3.5,17.793l12.75-15.029
					c0,0,0.219,3.341,2.17,3.882c2.705,0.75,21.58-2.5,21.58-2.5s3.001,5.185,6.46,6.159s30.513-6.086,32.9-7.184
					c2.388-1.097,12.161,0,12.161,0s5.353,2.399,9.728,3.524s28.063-2.625,28.063-2.625s28.938,10.449,29.688,10.162
					c0.75-0.287-1.5-9.53-7.375-12.159l18,1.997c0,0-13.75-7.12-15.625-7.56c-1.875-0.44-8.25,1.685-8.25,1.685L420.526,83.081z"/>
				<polygon style="opacity:0.8;fill-rule:evenodd;clip-rule:evenodd;fill:#FFFF70;" points="420.526,83.081 417.106,83.081 
					481.466,88.682 549.606,87.585 552.616,84.734 547.856,83.706 				"/>
				<g>
					<path style="fill-rule:evenodd;clip-rule:evenodd;fill:#B84318;" d="M509.606,121.879l-4.25-27.048l2.125-5.25l9.625-11.625
						c0,0,23-5.5,39-5.5l1.375,3.25l-7.875,36.167l-23.29,12.951l-14.71-1.243L509.606,121.879z"/>
					<path style="opacity:0.9;fill-rule:evenodd;clip-rule:evenodd;fill:#FFFFFF;" d="M517.106,77.956c0,0,3.5,22.544,3.25,25.397
						c-0.25,2.853-10.75,18.526-10.75,18.526l-4.25-27.048l2.125-5.25L517.106,77.956z"/>
					<path style="opacity:0.9;fill-rule:evenodd;clip-rule:evenodd;fill:#FFFFFF;" d="M517.106,77.956l9.21,1.417
						c0,0,14.873,0.5,19.873,0s9.917-6.917,9.917-6.917S538.356,72.373,517.106,77.956z"/>
					<path style="opacity:0.7;fill-rule:evenodd;clip-rule:evenodd;fill:#DA7666;" d="M552.842,97.012
						c0,0-1.245-17.599-0.986-19.056s4.25-5.5,4.25-5.5l1.375,3.25L552.842,97.012z"/>
					<polygon style="fill-rule:evenodd;clip-rule:evenodd;fill:#FFF6CF;" points="519.938,98.049 526.316,106.941 517.751,110.804 
						517.822,108.79 					"/>
					<polygon style="opacity:0.7;fill-rule:evenodd;clip-rule:evenodd;fill:#DA7666;" points="521.374,135.672 511.606,123.581 
						509.606,121.879 517.751,110.804 526.316,106.941 549.606,111.873 526.315,124.824 					"/>
					<polygon style="opacity:0.5;fill-rule:evenodd;clip-rule:evenodd;fill:#FFC8BF;" points="506.292,100.79 518.247,85.561 
						552.616,98.049 551.82,100.79 524.022,89.706 524.022,93.175 551.461,103.353 550.847,106.17 520.368,92.206 506.695,103.353 
											"/>
					<polygon style="opacity:0.7;fill-rule:evenodd;clip-rule:evenodd;fill:#DA7666;" points="526.315,124.824 511.606,123.581 
						509.606,121.879 517.751,110.804 526.316,106.941 549.606,111.873 					"/>
					<polygon style="fill-rule:evenodd;clip-rule:evenodd;fill:#FFF6CF;" points="517.106,77.956 518.247,85.561 520.747,78.516 
						520.368,77.222 					"/>
				</g>
			</g>
			<g>
				
					<linearGradient id="SVGID_00000179606423806836831350000008101902953935618726_" gradientUnits="userSpaceOnUse" x1="109.3479" y1="46.7055" x2="105.7522" y2="72.0648" gradientTransform="matrix(-1 0 0 1 600 0)">
					<stop  offset="0" style="stop-color:#E3E734"/>
					<stop  offset="0.0555" style="stop-color:#D8DD2B"/>
					<stop  offset="0.2429" style="stop-color:#B7C010"/>
					<stop  offset="0.3459" style="stop-color:#ABB506"/>
					<stop  offset="1" style="stop-color:#6C9500"/>
				</linearGradient>
				<path style="fill:url(#SVGID_00000179606423806836831350000008101902953935618726_);" d="M487.151,66.581
					c0.159,0.414,0.353,0.819,0.582,1.202c0.121,0.207,0.246,0.405,0.384,0.595c1.302,1.832,3.297,3.108,5.439,3.789
					c1.526,0.487,2.737,0.534,3.685,0.267l0.004-0.004c2.017-0.582,2.81-2.616,2.793-4.944c-0.017-1.737-0.483-3.633-1.233-5.206
					c-0.293-0.616-0.629-1.185-0.996-1.672c-0.487-0.646-1.082-1.228-1.746-1.707c-1.315-0.94-2.905-1.465-4.491-1.233
					c-2.228,0.323-4.095,2.146-4.707,4.31C486.435,63.487,486.578,65.116,487.151,66.581z"/>
				
					<linearGradient id="SVGID_00000138539493435661321530000011126288036920962435_" gradientUnits="userSpaceOnUse" x1="107.7005" y1="48.2758" x2="109.0211" y2="67.4235" gradientTransform="matrix(-1 0 0 1 600 0)">
					<stop  offset="0" style="stop-color:#AA8768"/>
					<stop  offset="0.2861" style="stop-color:#765E48"/>
					<stop  offset="0.7763" style="stop-color:#211B14"/>
					<stop  offset="1" style="stop-color:#000000"/>
				</linearGradient>
				<path style="fill:url(#SVGID_00000138539493435661321530000011126288036920962435_);" d="M487.151,66.581
					c0.655-2.789,3.202-5.056,6.064-5.336c0.914-0.091,1.97-0.052,2.573-0.746c0.371-0.427,0.452-1.06,0.276-1.599
					c-1.315-0.94-2.905-1.465-4.491-1.233c-2.228,0.323-4.095,2.146-4.707,4.31C486.435,63.487,486.578,65.116,487.151,66.581z"/>
				<path style="fill:#507B3C;" d="M488.691,67.96c-0.01-0.021-0.019-0.043-0.027-0.064c-0.061-0.072-0.118-0.146-0.159-0.228
					c-0.154-0.307-0.049-0.81,0.356-0.874c0.113-0.018,0.218-0.021,0.325-0.02c0.174-0.066,0.367-0.088,0.531-0.026
					c0.213,0.08,0.43,0.153,0.647,0.222c0.211,0.067,0.416,0.155,0.631,0.211c0.102,0.026,0.207,0.037,0.308,0.061
					c0.089,0.021,0.178,0.066,0.271,0.074c0.017,0,0.036,0.001,0.056,0.002c0.075,0.006,0.15,0.008,0.224,0.029
					c0.052,0.016,0.102,0.036,0.15,0.061c-0.053-0.023-0.062-0.027-0.027-0.013c0.062,0.022,0.122,0.049,0.182,0.077
					c0.138,0.065,0.204,0.259,0.163,0.4c0.655-0.136,1.295-0.334,1.906-0.618c0.974-0.453,1.853-1.121,2.556-1.935
					c0.341-0.392,0.642-0.819,0.888-1.271c0.237-0.435,0.323-1.077,0.595-1.465c0.181-0.254,0.362-0.336,0.539-0.302
					c0.75,1.573,1.215,3.47,1.233,5.206c-0.448,1.853-1.539,3.504-2.793,4.944l-0.004,0.004c-0.948,0.267-2.159,0.22-3.685-0.267
					c-2.142-0.681-4.138-1.957-5.439-3.789c-0.138-0.19-0.263-0.388-0.384-0.595C488.049,67.857,488.37,67.913,488.691,67.96z"/>
				
					<linearGradient id="SVGID_00000155132224109362484940000010516097076798291347_" gradientUnits="userSpaceOnUse" x1="101.3581" y1="55.7297" x2="95.1959" y2="80.672" gradientTransform="matrix(-1 0 0 1 600 0)">
					<stop  offset="0" style="stop-color:#E3E734"/>
					<stop  offset="0.0555" style="stop-color:#D8DD2B"/>
					<stop  offset="0.2429" style="stop-color:#B7C010"/>
					<stop  offset="0.3459" style="stop-color:#ABB506"/>
					<stop  offset="1" style="stop-color:#6C9500"/>
				</linearGradient>
				<path style="fill:url(#SVGID_00000155132224109362484940000010516097076798291347_);" d="M492.491,76.848
					c0.164,2.116,1.314,4.245,3.245,5.129c2.28,1.039,5.353,1.405,8.271,1.267c1.689-0.073,3.332-0.319,4.728-0.698
					c2.125-2.668,4.039-5.633,4.689-8.982c0.409-2.103,0.233-4.388-0.612-6.34c-0.276-0.655-0.634-1.271-1.069-1.832
					c-0.328-0.427-0.698-0.819-1.121-1.172c-1.039-0.871-2.289-1.414-3.612-1.664c-0.448-0.086-0.905-0.138-1.362-0.155
					c-1.621-0.069-3.284,0.272-4.75,0.961c-3.108,1.47-5.414,4.284-6.935,7.366c-0.341,0.681-0.647,1.392-0.888,2.116
					C492.638,74.137,492.388,75.486,492.491,76.848z"/>
				
					<linearGradient id="SVGID_00000074437964589336267660000018351539089451449511_" gradientUnits="userSpaceOnUse" x1="92.8312" y1="67.6177" x2="106.9228" y2="67.6177" gradientTransform="matrix(-1 0 0 1 600 0)">
					<stop  offset="0" style="stop-color:#AA8768"/>
					<stop  offset="0.2861" style="stop-color:#765E48"/>
					<stop  offset="0.7763" style="stop-color:#211B14"/>
					<stop  offset="1" style="stop-color:#000000"/>
				</linearGradient>
				<path style="fill:url(#SVGID_00000074437964589336267660000018351539089451449511_);" d="M493.077,72.844
					c2.366-2.875,5.595-5.039,9.168-6.09c1.586-0.465,3.375-0.806,4.392-2.108c0.349-0.444,0.586-1.009,0.521-1.569
					c-0.021-0.181-0.069-0.358-0.146-0.521c-0.448-0.086-0.905-0.138-1.362-0.155c-1.621-0.069-3.284,0.272-4.75,0.961
					c-3.108,1.47-5.414,4.284-6.935,7.366C493.625,71.409,493.319,72.12,493.077,72.844z"/>
				
					<linearGradient id="SVGID_00000124869817559718129850000001142015564817470851_" gradientUnits="userSpaceOnUse" x1="84.2895" y1="42.4192" x2="89.1661" y2="67.2084" gradientTransform="matrix(-1 0 0 1 600 0)">
					<stop  offset="0" style="stop-color:#E3E734"/>
					<stop  offset="0.0555" style="stop-color:#D8DD2B"/>
					<stop  offset="0.2429" style="stop-color:#B7C010"/>
					<stop  offset="0.3459" style="stop-color:#ABB506"/>
					<stop  offset="1" style="stop-color:#6C9500"/>
				</linearGradient>
				<path style="fill:url(#SVGID_00000124869817559718129850000001142015564817470851_);" d="M505.65,62.4
					c0.082,0.931,0.246,1.827,0.534,2.612c0.147,0.418,0.332,0.81,0.56,1.155c0.84,1.289,2.237,2,4.5,1.577
					c0.547-0.104,1.069-0.28,1.569-0.522c3.22-1.526,5.448-5.573,6.603-8.629c0.664-1.746,1.052-3.629,0.823-5.482
					c-0.134-1.06-0.487-2.112-1.052-3.017c-0.353-0.569-0.793-1.082-1.31-1.5c-0.099-0.082-0.198-0.155-0.302-0.229
					c-2.345-1.642-5.754-1.172-7.978,0.629c-2.228,1.797-3.388,4.659-3.72,7.504C505.688,58.116,505.473,60.345,505.65,62.4z"/>
				<path style="fill:#507B3C;" d="M502.722,81.524c0.041-0.16,0.13-0.293,0.216-0.429l0.08-0.103
					c-0.044,0.053-0.048,0.05-0.012-0.009c0.155-0.228,0.305-0.367,0.511-0.536c0.529-0.435,1.031-0.92,1.493-1.425
					c0.481-0.526,0.834-0.964,1.173-1.489c0.41-0.636,0.779-1.308,1.121-1.983c0.134-0.265,0.711-1.739,1.197-1.406
					c0.298,0.205,0.38,0.582,0.386,0.966c0.68-2.114,1.04-4.333,1.038-6.546c-1.263-0.444-2.487-1.315-3.258-2.409
					c0.026,0.004,0.052,0.009,0.078,0.013c1.694,0.297,3.439-0.026,5-0.776c0.819-0.388,1.586-0.896,2.263-1.491
					c1.987-1.75,3.28-4.189,4.034-6.728c0.681-2.293,0.957-4.689,1.146-7.077c0.565,0.905,0.918,1.957,1.052,3.017
					c0.229,1.853-0.159,3.737-0.823,5.482c-1.155,3.056-3.383,7.103-6.603,8.629c0.845,1.953,1.021,4.237,0.612,6.34
					c-0.651,3.349-2.565,6.314-4.689,8.982c-1.396,0.379-3.039,0.625-4.728,0.698c0.284-0.286,0.556-0.584,0.822-0.887
					c-0.441,0.29-0.93,0.485-1.438,0.345C502.879,82.561,502.592,82.033,502.722,81.524z"/>
				<path style="fill:#507B3C;" d="M509.787,62.676c0.052-0.042,0.105-0.087,0.155-0.134c0.043-0.06,0.094-0.115,0.151-0.16
					c0.094-0.072,0.206-0.113,0.316-0.156c0.068-0.027,0.135-0.053,0.203-0.08c0.05-0.022,0.101-0.044,0.151-0.067
					c0.126-0.059,0.244-0.103,0.378-0.133c0.081-0.018,0.162-0.038,0.243-0.06c0.089-0.024,0.174-0.042,0.266-0.029
					c0.014,0.002,0.026,0.007,0.039,0.01c0.017-0.005,0.035-0.009,0.052-0.014c0.259-0.069,0.516,0.23,0.361,0.47
					c-0.012,0.019-0.023,0.038-0.036,0.056c0.11-0.072,0.221-0.143,0.33-0.217c0.042-0.028,0.084-0.058,0.126-0.087
					c0.013-0.01,0.023-0.016,0.032-0.023c0.074-0.055,0.145-0.117,0.213-0.177c0.148-0.13,0.288-0.268,0.422-0.411
					c0.148-0.159,0.296-0.319,0.436-0.486c0.066-0.078,0.131-0.158,0.195-0.238c0.028-0.035,0.028-0.036,0.002-0.001
					c0.014-0.018,0.028-0.037,0.042-0.056c0.055-0.071,0.11-0.142,0.164-0.213c0.015-0.019,0.019-0.025,0.02-0.026
					c0.008-0.011,0.016-0.021,0.029-0.039c0.028-0.037,0.056-0.075,0.084-0.112c0.083-0.11,0.174-0.223,0.272-0.322
					c0.161-0.162,0.347-0.278,0.52-0.424c0.159-0.135,0.509-0.067,0.474,0.196c-0.033,0.254-0.028,0.502-0.092,0.753
					c-0.069,0.271-0.193,0.531-0.313,0.783c-0.24,0.504-0.529,0.972-0.873,1.41c-0.31,0.393-0.666,0.765-1.082,1.046
					c-0.186,0.126-0.382,0.237-0.587,0.331c-0.152,0.07-0.282,0.119-0.448,0.126c-0.24-0.035-0.295-0.042-0.167-0.02
					c0.074,0.008,0.073,0.012-0.002,0.013c-0.15,0.02-0.313,0.001-0.458-0.04c-0.352-0.099-0.493-0.417-0.438-0.721
					c-0.209,0.101-0.43,0.166-0.643,0.12c-0.055-0.001-0.11,0-0.164-0.002c-0.222-0.008-0.448-0.079-0.541-0.3
					C509.535,63.04,509.623,62.811,509.787,62.676z"/>
				<path style="fill:#507B3C;" d="M488.114,65.484c0-0.039,0.009-0.08,0.021-0.119c0.021-0.068,0.061-0.119,0.123-0.153
					c0.06-0.033,0.123-0.054,0.192-0.053c0.053,0.001,0.111,0.016,0.165,0.025c0.007,0.001,0.014,0.002,0.021,0.003
					c0.122-0.023,0.254-0.012,0.359,0.058c0.031,0.021,0.06,0.044,0.091,0.065c0.015,0.011,0.031,0.021,0.046,0.032
					c0.077,0.046,0.138,0.107,0.184,0.184c0.004,0.007,0.008,0.014,0.013,0.021c0.017,0.027,0.035,0.054,0.052,0.081
					c0.087,0.132,0.078,0.321,0,0.453c-0.078,0.133-0.231,0.228-0.388,0.222c-0.032-0.001-0.064-0.003-0.096-0.005
					c-0.008,0-0.016-0.001-0.024-0.001c-0.046-0.006-0.091-0.012-0.136-0.018c-0.041-0.017-0.082-0.035-0.122-0.052
					c-0.019-0.009-0.037-0.019-0.055-0.029c-0.051-0.028-0.097-0.057-0.143-0.093c-0.039-0.023-0.071-0.054-0.094-0.094
					c-0.032-0.033-0.055-0.071-0.067-0.115c-0.017-0.029-0.021-0.062-0.026-0.095c-0.015-0.031-0.031-0.063-0.046-0.094
					C488.15,65.636,488.114,65.566,488.114,65.484z"/>
				<path style="fill:#507B3C;" d="M502.6,78.857c0.005-0.013,0.01-0.026,0.015-0.039c-0.011-0.15,0.035-0.299,0.118-0.428
					c0.025-0.038,0.047-0.078,0.072-0.116c0.079-0.125,0.193-0.227,0.288-0.339c0.032-0.038,0.062-0.079,0.097-0.114
					c0.064-0.065,0.152-0.114,0.227-0.167c0.076-0.053,0.13-0.09,0.23-0.116c0.057-0.014,0.115-0.021,0.172-0.02
					c0.091-0.042,0.179-0.053,0.274-0.013c0.084,0.035,0.168,0.112,0.185,0.207c0.004,0.025,0.007,0.051,0.011,0.076
					c0.029,0.048,0.053,0.099,0.068,0.153c0.041,0.144,0.017,0.281-0.019,0.421c-0.023,0.093-0.049,0.184-0.097,0.269
					c-0.05,0.089-0.125,0.173-0.186,0.252c-0.096,0.124-0.187,0.231-0.32,0.321c-0.043,0.029-0.087,0.057-0.132,0.083
					c-0.159,0.095-0.33,0.122-0.497,0.087c-0.097,0.014-0.179,0.021-0.275-0.02c-0.054-0.023-0.098-0.041-0.141-0.087
					C502.594,79.162,502.552,78.995,502.6,78.857z"/>
				<path style="fill:#507B3C;" d="M507.007,71.466c0.001-0.075,0.005-0.152,0.012-0.226c0.013-0.145,0.036-0.289,0.052-0.433
					c0.018-0.166,0.036-0.332,0.09-0.492c0.053-0.159,0.156-0.334,0.266-0.462c0.123-0.144,0.375-0.096,0.462,0.06
					c0.1,0.178,0.153,0.404,0.157,0.605c0.004,0.216-0.042,0.429-0.079,0.642c-0.035,0.195-0.067,0.451-0.191,0.61
					c-0.032,0.042-0.064,0.068-0.09,0.111c-0.02,0.033-0.034,0.072-0.05,0.107c-0.044,0.093-0.087,0.17-0.155,0.248
					c-0.112,0.131-0.32,0.05-0.366-0.096c-0.042-0.135-0.044-0.282-0.049-0.426C507.031,71.636,507.005,71.557,507.007,71.466z"/>
				<path style="fill:#507B3C;" d="M492.944,75.118c0.057-0.579,0.176-1.098,0.454-1.614c0.134-0.25,0.331-0.475,0.606-0.557
					c-0.032,0.008-0.044,0.008,0.058-0.031c0.04-0.015,0.075-0.029,0.119-0.031c0.077-0.003,0.14,0.021,0.186,0.085
					c0.226,0.316,0.136,0.764,0.125,1.124c-0.014,0.44-0.023,0.886,0.02,1.325c0.051,0.514,0.099,0.918,0.14,1.405
					c0.009,0.109,0.027,0.219,0.032,0.328c0.006,0.132-0.028,0.256-0.046,0.374c-0.04,0.265-0.037,0.506-0.166,0.75
					c-0.088,0.167-0.358,0.254-0.518,0.136c-0.22-0.163-0.33-0.359-0.466-0.582c-0.046-0.076-0.12-0.135-0.165-0.212
					c-0.055-0.095-0.084-0.207-0.116-0.313c-0.041-0.136-0.087-0.273-0.118-0.411C492.957,76.319,492.886,75.705,492.944,75.118z"/>
				<path style="fill:#507B3C;" d="M507.339,52.758c0.008-0.048,0.019-0.096,0.029-0.144c-0.001-0.012-0.004-0.024-0.005-0.035
					c-0.009-0.124,0.031-0.224,0.081-0.332c0.021-0.045,0.044-0.089,0.068-0.133c0.047-0.089,0.105-0.168,0.166-0.247
					c0.117-0.152,0.223-0.313,0.399-0.403c0.085-0.044,0.173-0.083,0.26-0.122c0.107-0.048,0.203-0.076,0.322-0.06
					c0.106,0.014,0.216,0.058,0.29,0.139c0.059,0.065,0.103,0.14,0.13,0.223c0.042,0.131,0.006,0.256-0.045,0.375
					c0.012-0.029,0.024-0.058,0.036-0.086c-0.033,0.079-0.063,0.159-0.09,0.239c-0.021,0.061-0.044,0.128-0.075,0.184
					c-0.033,0.061-0.085,0.116-0.128,0.17c-0.031,0.039-0.063,0.077-0.093,0.117c0.033-0.043,0.067-0.086,0.1-0.13
					c-0.117,0.153-0.235,0.304-0.353,0.455l-0.02,0.025c-0.05,0.049-0.107,0.085-0.168,0.115c-0.116,0.116-0.228,0.239-0.363,0.331
					c-0.099,0.068-0.235,0.064-0.34,0.019c-0.098-0.041-0.206-0.135-0.221-0.248c-0.01-0.076-0.019-0.141-0.013-0.215
					C507.312,52.917,507.326,52.836,507.339,52.758z"/>
				
					<linearGradient id="SVGID_00000116202387015557001330000016134297921172058784_" gradientUnits="userSpaceOnUse" x1="83.1139" y1="37.0101" x2="91.1105" y2="61.2201" gradientTransform="matrix(-1 0 0 1 600 0)">
					<stop  offset="0" style="stop-color:#AA8768"/>
					<stop  offset="0.2861" style="stop-color:#765E48"/>
					<stop  offset="0.7763" style="stop-color:#211B14"/>
					<stop  offset="1" style="stop-color:#000000"/>
				</linearGradient>
				<path style="fill:url(#SVGID_00000116202387015557001330000016134297921172058784_);" d="M505.65,62.4
					c0.082,0.931,0.246,1.827,0.534,2.612c0.336-2.728,0.94-5.461,2.207-7.905c1.289-2.496,3.323-4.681,5.918-5.754
					c1.211-0.5,3.487-1.138,3.569-2.758c-0.099-0.082-0.198-0.155-0.302-0.229c-2.345-1.642-5.754-1.172-7.978,0.629
					c-2.228,1.797-3.388,4.659-3.72,7.504C505.688,58.116,505.473,60.345,505.65,62.4z"/>
				<path style="fill:#9C7240;" d="M494.469,83.444c-0.402-0.588-0.94-1.509-1.342-2.097c-0.057-0.084-0.111-0.196-0.024-0.268
					c0.07-0.058,0.188-0.052,0.288-0.039c1.566,0.195,3.07,0.633,4.424,1.243c-0.355-0.933-0.71-1.865-1.065-2.798
					c-0.054-0.141-0.087-0.329,0.078-0.412c0.099-0.05,0.228-0.036,0.341-0.017c2.363,0.388,4.384,1.66,5.381,3.336
					c0.152-2.522,1.128-5.099,3.517-6.984c0.873,1.943,0.966,4.014,0.083,6.005c1.072-1.743,2.898-3.223,5.108-4.142
					c0.287-0.119,0.664-0.224,0.902-0.065c0.194,0.129,0.18,0.363,0.143,0.562c-0.359,1.924-1.716,4.283-3.433,5.748
					C504.005,84.098,499.343,83.679,494.469,83.444z"/>
				<g>
					<path style="fill:#FFF3C7;" d="M518.175,49.013c-0.099-0.082-0.198-0.155-0.302-0.229c-2.345-1.642-5.754-1.172-7.978,0.629
						c-2.228,1.797-3.388,4.659-3.72,7.504c-0.19,1.616-0.405,3.845-0.228,5.901c-1.621-0.069-3.284,0.272-4.75,0.961
						c-0.488,0.231-0.949,0.505-1.398,0.798c-0.05-0.169-0.109-0.333-0.164-0.5c0.407-0.261,0.823-0.507,1.264-0.715
						c1.465-0.69,3.129-1.03,4.75-0.961c-0.177-2.056,0.039-4.284,0.228-5.9c0.332-2.845,1.491-5.707,3.72-7.504
						c2.224-1.802,5.633-2.271,7.978-0.629c0.103,0.073,0.203,0.147,0.302,0.229c0.517,0.418,0.957,0.931,1.31,1.5
						c0.01,0.016,0.017,0.033,0.027,0.049C518.912,49.726,518.574,49.335,518.175,49.013z"/>
					<path style="fill:#FFF3C7;" d="M493.258,72.365c0.133,0.05,0.265,0.104,0.399,0.149c-0.098,0.248-0.199,0.495-0.283,0.746
						c-0.44,1.293-0.69,2.642-0.586,4.004c0.09,1.164,0.489,2.325,1.142,3.287c-0.838-1.03-1.336-2.369-1.44-3.704
						c-0.104-1.362,0.146-2.711,0.586-4.004C493.131,72.683,493.196,72.524,493.258,72.365z"/>
					<path style="fill:#FFF3C7;" d="M486.866,61.978c0.612-2.164,2.478-3.987,4.707-4.31c1.586-0.233,3.176,0.293,4.491,1.233
						c0.664,0.479,1.259,1.06,1.746,1.707c0.076,0.101,0.144,0.218,0.217,0.326c-0.473-0.608-1.034-1.161-1.665-1.615
						c-1.314-0.94-2.905-1.465-4.491-1.233c-2.228,0.323-4.095,2.146-4.707,4.31c-0.431,1.508-0.289,3.138,0.285,4.603
						c0.159,0.414,0.353,0.819,0.582,1.202c0.078,0.134,0.164,0.257,0.247,0.384c-0.053-0.07-0.111-0.135-0.162-0.206
						c-0.138-0.19-0.263-0.388-0.384-0.595c-0.228-0.384-0.422-0.789-0.582-1.202C486.578,65.116,486.435,63.487,486.866,61.978z"/>
				</g>
			</g>
		</g>
	</g>
</g>
</svg>
